<svg width="1920" height="1080" viewBox="0 0 1920 1080" fill="none" xmlns="http://www.w3.org/2000/svg">
<rect width="1920" height="1080" fill="white"/>
<rect width="1920" height="1080" fill="#EEF4F2"/>
<mask id="mask0" mask-type="alpha" maskUnits="userSpaceOnUse" x="0" y="0" width="1920" height="1080">
<rect width="1920" height="1080" fill="#198382"/>
</mask>
<g mask="url(#mask0)">
<path d="M1163.64 63.3261C426.667 228.529 0 801.88 0 801.88V-442H1920V403.451C1920 403.451 1280 37.2415 1163.64 63.3261Z" fill="#E6EFEE"/>
<path d="M1163.64 141.07C397.576 393.732 0 1103.13 0 1103.13V1521H1920V568.655C1920 568.655 1301.36 95.6469 1163.64 141.07Z" fill="#E6EFEE"/>
<rect x="103" y="924" width="1817" height="154" fill="white"/>
</g>
<rect width="103" height="1080" fill="#008B8A"/>
<g filter="url(#filter0_d)">
<path d="M53.4628 352.586C52.5413 351.7 51.0845 351.7 50.1628 352.586L28.7311 373.184C28.264 373.633 28 374.253 28 374.901V398.619C28 399.934 29.066 401 30.381 401H40.4861C41.8011 401 42.8671 399.934 42.8671 398.619V390.985C42.8671 389.67 43.9331 388.604 45.248 388.604H58.371C59.686 388.604 60.752 389.67 60.752 390.985V398.619C60.752 399.934 61.818 401 63.1329 401H73.2381C74.5531 401 75.619 399.934 75.619 398.619V374.901C75.619 374.253 75.3552 373.633 74.8882 373.184L53.4628 352.586Z" fill="white"/>
<path d="M53.4628 352.586C52.5413 351.7 51.0845 351.7 50.1628 352.586L28.7311 373.184C28.264 373.633 28 374.253 28 374.901V398.619C28 399.934 29.066 401 30.381 401H40.4861C41.8011 401 42.8671 399.934 42.8671 398.619V390.985C42.8671 389.67 43.9331 388.604 45.248 388.604H58.371C59.686 388.604 60.752 389.67 60.752 390.985V398.619C60.752 399.934 61.818 401 63.1329 401H73.2381C74.5531 401 75.619 399.934 75.619 398.619V374.901C75.619 374.253 75.3552 373.633 74.8882 373.184L53.4628 352.586Z" fill="white"/>
<path d="M42.8671 390.985V398.619C42.8671 399.934 41.8017 400.999 40.4872 401L63.1301 401C61.8164 400.998 60.752 399.933 60.752 398.619V390.985C60.752 389.67 59.686 388.604 58.371 388.604H45.248C43.9331 388.604 42.8671 389.67 42.8671 390.985Z" fill="#008B8A"/>
</g>
<g filter="url(#filter1_d)">
<path d="M76 700.994C76 714.255 65.2564 725 51.994 725C38.7452 725 28 714.255 28 700.994C28 687.745 38.7452 677 51.994 677C65.2564 677 76 687.745 76 700.994Z" fill="white" stroke="white" stroke-width="2.61912" stroke-miterlimit="10"/>
<path d="M58.3464 699.346C58.3464 702.861 55.509 705.705 51.9939 705.705C48.4873 705.705 45.6414 702.861 45.6414 699.346C45.6414 695.838 48.4873 693 51.9939 693C55.509 693 58.3464 695.838 58.3464 699.346Z" fill="#008B8A"/>
<path d="M65.41 721.401C65.41 713.997 59.4048 707.991 51.9935 707.991C44.589 707.991 38.5837 713.997 38.5837 721.401" fill="#008B8A"/>
<path d="M65.41 721.401C65.41 713.997 59.4048 707.991 51.9935 707.991C44.589 707.991 38.5837 713.997 38.5837 721.401C38.5837 721.401 44.0003 725.638 52.0003 725.638C60.0003 725.638 65.41 721.401 65.41 721.401Z" fill="#008B8A"/>
<path d="M65.41 721.401C65.41 713.997 59.4048 707.991 51.9935 707.991C44.589 707.991 38.5837 713.997 38.5837 721.401C38.5837 721.401 44.0003 725.638 52.0003 725.638C60.0003 725.638 65.41 721.401 65.41 721.401Z" stroke="#008B8A" stroke-width="2.61912" stroke-miterlimit="10"/>
</g>
<g filter="url(#filter2_d)">
<circle cx="50" cy="539" r="22" fill="white"/>
<path d="M76 561L58 554L71 541L76 561Z" fill="white"/>
<rect x="38" y="533" width="22" height="4" rx="2" fill="#008B8A"/>
<rect x="42" y="543" width="18" height="4" rx="2" fill="#008B8A"/>
</g>
<path d="M369.45 974.28C372.632 974.28 375.152 975.123 377.01 976.807C378.867 978.492 379.796 980.789 379.796 983.697C379.796 987.067 378.737 989.702 376.621 991.603C374.519 993.489 371.523 994.432 367.636 994.432C364.108 994.432 361.336 993.863 359.32 992.726V988.125C360.487 988.788 361.826 989.299 363.338 989.659C364.85 990.019 366.253 990.199 367.549 990.199C369.839 990.199 371.581 989.687 372.776 988.665C373.971 987.643 374.569 986.145 374.569 984.173C374.569 980.4 372.164 978.514 367.355 978.514C366.678 978.514 365.843 978.586 364.85 978.73C363.856 978.859 362.985 979.011 362.236 979.183L359.968 977.844L361.178 962.423H377.593V966.937H365.649L364.936 974.756C365.44 974.669 366.052 974.568 366.772 974.453C367.506 974.338 368.399 974.28 369.45 974.28ZM388.09 971.883C388.09 974.028 388.298 975.627 388.716 976.678C389.134 977.729 389.818 978.255 390.768 978.255C392.669 978.255 393.619 976.131 393.619 971.883C393.619 967.635 392.669 965.511 390.768 965.511C389.818 965.511 389.134 966.037 388.716 967.088C388.298 968.139 388.09 969.738 388.09 971.883ZM397.809 971.84C397.809 975.152 397.211 977.643 396.016 979.313C394.836 980.969 393.086 981.797 390.768 981.797C388.579 981.797 386.88 980.94 385.671 979.227C384.475 977.499 383.878 975.036 383.878 971.84C383.878 965.259 386.175 961.969 390.768 961.969C393.029 961.969 394.764 962.826 395.973 964.539C397.197 966.239 397.809 968.672 397.809 971.84ZM408.652 984.497C408.652 986.642 408.86 988.248 409.278 989.313C409.71 990.379 410.401 990.911 411.351 990.911C413.238 990.911 414.181 988.773 414.181 984.497C414.181 980.278 413.238 978.168 411.351 978.168C410.401 978.168 409.71 978.687 409.278 979.723C408.86 980.76 408.652 982.351 408.652 984.497ZM418.371 984.497C418.371 987.808 417.773 990.292 416.578 991.948C415.383 993.604 413.641 994.432 411.351 994.432C409.163 994.432 407.464 993.582 406.254 991.883C405.045 990.17 404.44 987.708 404.44 984.497C404.44 977.916 406.744 974.626 411.351 974.626C413.569 974.626 415.29 975.476 416.513 977.175C417.752 978.874 418.371 981.314 418.371 984.497ZM411.956 962.423L394.44 994H390.25L407.766 962.423H411.956Z" fill="#21A4A3"/>
<path d="M288.666 1036.89H286.626V1021.16H277.615V1036.89H275.575V1019.35H288.666V1036.89ZM299.322 1037.13C298.466 1037.13 297.682 1036.98 296.97 1036.67C296.266 1036.35 295.674 1035.86 295.194 1035.2H295.05C295.146 1035.97 295.194 1036.7 295.194 1037.39V1042.8H293.202V1023.74H294.822L295.098 1025.54H295.194C295.706 1024.82 296.302 1024.3 296.982 1023.98C297.662 1023.66 298.442 1023.5 299.322 1023.5C301.065 1023.5 302.409 1024.1 303.353 1025.29C304.305 1026.48 304.781 1028.15 304.781 1030.31C304.781 1032.47 304.297 1034.15 303.329 1035.35C302.369 1036.54 301.033 1037.13 299.322 1037.13ZM299.034 1025.19C297.69 1025.19 296.718 1025.57 296.118 1026.31C295.518 1027.05 295.21 1028.24 295.194 1029.86V1030.31C295.194 1032.15 295.502 1033.48 296.118 1034.28C296.734 1035.07 297.722 1035.47 299.082 1035.47C300.218 1035.47 301.105 1035.01 301.745 1034.09C302.393 1033.17 302.717 1031.9 302.717 1030.28C302.717 1028.64 302.393 1027.39 301.745 1026.51C301.105 1025.63 300.202 1025.19 299.034 1025.19ZM319.624 1030.31C319.624 1032.45 319.084 1034.13 318.004 1035.33C316.924 1036.53 315.433 1037.13 313.529 1037.13C312.353 1037.13 311.309 1036.86 310.397 1036.31C309.485 1035.75 308.781 1034.96 308.285 1033.93C307.789 1032.9 307.541 1031.69 307.541 1030.31C307.541 1028.16 308.077 1026.49 309.149 1025.3C310.221 1024.1 311.709 1023.5 313.613 1023.5C315.453 1023.5 316.912 1024.11 317.992 1025.34C319.08 1026.56 319.624 1028.22 319.624 1030.31ZM309.605 1030.31C309.605 1031.99 309.941 1033.27 310.613 1034.15C311.285 1035.03 312.273 1035.47 313.577 1035.47C314.881 1035.47 315.869 1035.03 316.54 1034.16C317.22 1033.28 317.56 1031.99 317.56 1030.31C317.56 1028.63 317.22 1027.37 316.54 1026.5C315.869 1025.63 314.873 1025.19 313.553 1025.19C312.249 1025.19 311.265 1025.62 310.601 1026.48C309.937 1027.33 309.605 1028.61 309.605 1030.31ZM335.955 1041.44H333.963V1036.89H323.128V1023.74H325.12V1035.18H332.104V1023.74H334.095V1035.18H335.955V1041.44ZM344.067 1037.13C342.123 1037.13 340.587 1036.54 339.459 1035.36C338.339 1034.17 337.779 1032.53 337.779 1030.43C337.779 1028.31 338.299 1026.62 339.339 1025.37C340.387 1024.13 341.791 1023.5 343.551 1023.5C345.199 1023.5 346.503 1024.05 347.463 1025.13C348.422 1026.21 348.902 1027.64 348.902 1029.42V1030.68H339.843C339.883 1032.22 340.271 1033.39 341.007 1034.19C341.751 1034.99 342.795 1035.39 344.139 1035.39C345.555 1035.39 346.955 1035.1 348.339 1034.51V1036.28C347.635 1036.59 346.967 1036.8 346.335 1036.93C345.711 1037.07 344.955 1037.13 344.067 1037.13ZM343.527 1025.17C342.471 1025.17 341.627 1025.51 340.995 1026.2C340.371 1026.89 340.003 1027.84 339.891 1029.06H346.767C346.767 1027.8 346.487 1026.84 345.927 1026.18C345.367 1025.51 344.567 1025.17 343.527 1025.17ZM354.302 1023.74V1029.25H361.67V1023.74H363.662V1036.89H361.67V1030.97H354.302V1036.89H352.31V1023.74H354.302ZM376.753 1025.45H372.481V1036.89H370.489V1025.45H366.265V1023.74H376.753V1025.45ZM381.348 1023.74V1029.25H388.716V1023.74H390.708V1036.89H388.716V1030.97H381.348V1036.89H379.357V1023.74H381.348ZM403.019 1036.89L402.623 1035.02H402.527C401.871 1035.85 401.215 1036.41 400.559 1036.7C399.911 1036.99 399.099 1037.13 398.123 1037.13C396.819 1037.13 395.796 1036.8 395.052 1036.13C394.316 1035.45 393.948 1034.5 393.948 1033.26C393.948 1030.6 396.072 1029.21 400.319 1029.08L402.551 1029.01V1028.19C402.551 1027.16 402.327 1026.4 401.879 1025.91C401.439 1025.42 400.731 1025.17 399.755 1025.17C398.659 1025.17 397.419 1025.51 396.036 1026.18L395.424 1024.65C396.072 1024.3 396.779 1024.03 397.547 1023.83C398.323 1023.63 399.099 1023.53 399.875 1023.53C401.443 1023.53 402.603 1023.87 403.355 1024.57C404.115 1025.27 404.495 1026.38 404.495 1027.92V1036.89H403.019ZM398.519 1035.49C399.759 1035.49 400.731 1035.15 401.435 1034.47C402.147 1033.79 402.503 1032.84 402.503 1031.61V1030.43L400.511 1030.51C398.927 1030.57 397.783 1030.81 397.079 1031.25C396.384 1031.69 396.036 1032.36 396.036 1033.28C396.036 1034 396.252 1034.55 396.683 1034.93C397.123 1035.3 397.735 1035.49 398.519 1035.49ZM409.271 1036.89H406.943L410.723 1031.34C409.707 1031.11 408.927 1030.68 408.383 1030.04C407.847 1029.39 407.579 1028.58 407.579 1027.61C407.579 1026.41 407.983 1025.46 408.791 1024.77C409.599 1024.09 410.727 1023.74 412.175 1023.74H418.03V1036.89H416.038V1031.64H412.714L409.271 1036.89ZM409.523 1027.63C409.523 1029.15 410.627 1029.91 412.834 1029.91H416.038V1025.47H412.427C410.491 1025.47 409.523 1026.19 409.523 1027.63ZM433.905 1037.13C432.001 1037.13 430.525 1036.55 429.477 1035.38C428.438 1034.21 427.918 1032.55 427.918 1030.4C427.918 1028.2 428.446 1026.5 429.501 1025.3C430.565 1024.1 432.077 1023.5 434.037 1023.5C434.669 1023.5 435.301 1023.57 435.933 1023.71C436.565 1023.84 437.061 1024 437.421 1024.19L436.809 1025.88C436.369 1025.7 435.889 1025.56 435.369 1025.45C434.849 1025.33 434.389 1025.27 433.989 1025.27C431.317 1025.27 429.981 1026.97 429.981 1030.38C429.981 1031.99 430.305 1033.23 430.953 1034.1C431.609 1034.96 432.577 1035.39 433.857 1035.39C434.953 1035.39 436.077 1035.16 437.229 1034.69V1036.45C436.349 1036.91 435.241 1037.13 433.905 1037.13ZM449.228 1025.45H444.956V1036.89H442.965V1025.45H438.741V1023.74H449.228V1025.45ZM459.92 1036.89L459.524 1035.02H459.428C458.772 1035.85 458.116 1036.41 457.46 1036.7C456.812 1036.99 456 1037.13 455.024 1037.13C453.72 1037.13 452.696 1036.8 451.952 1036.13C451.216 1035.45 450.848 1034.5 450.848 1033.26C450.848 1030.6 452.972 1029.21 457.22 1029.08L459.452 1029.01V1028.19C459.452 1027.16 459.228 1026.4 458.78 1025.91C458.34 1025.42 457.632 1025.17 456.656 1025.17C455.56 1025.17 454.32 1025.51 452.936 1026.18L452.324 1024.65C452.972 1024.3 453.68 1024.03 454.448 1023.83C455.224 1023.63 456 1023.53 456.776 1023.53C458.344 1023.53 459.504 1023.87 460.256 1024.57C461.015 1025.27 461.395 1026.38 461.395 1027.92V1036.89H459.92ZM455.42 1035.49C456.66 1035.49 457.632 1035.15 458.336 1034.47C459.048 1033.79 459.404 1032.84 459.404 1031.61V1030.43L457.412 1030.51C455.828 1030.57 454.684 1030.81 453.98 1031.25C453.284 1031.69 452.936 1032.36 452.936 1033.28C452.936 1034 453.152 1034.55 453.584 1034.93C454.024 1035.3 454.636 1035.49 455.42 1035.49ZM476.179 1027.04C476.179 1027.9 475.931 1028.55 475.435 1029C474.947 1029.44 474.259 1029.73 473.371 1029.89V1029.99C474.491 1030.15 475.307 1030.47 475.819 1030.98C476.339 1031.48 476.598 1032.18 476.598 1033.07C476.598 1034.29 476.147 1035.23 475.243 1035.9C474.347 1036.56 473.035 1036.89 471.307 1036.89H465.511V1023.74H471.283C474.547 1023.74 476.179 1024.84 476.179 1027.04ZM474.607 1032.93C474.607 1032.22 474.335 1031.71 473.791 1031.39C473.255 1031.06 472.363 1030.89 471.115 1030.89H467.503V1035.23H471.163C473.459 1035.23 474.607 1034.46 474.607 1032.93ZM474.235 1027.23C474.235 1026.59 473.987 1026.14 473.491 1025.88C473.003 1025.61 472.259 1025.47 471.259 1025.47H467.503V1029.18H470.875C472.107 1029.18 472.975 1029.03 473.479 1028.72C473.983 1028.42 474.235 1027.92 474.235 1027.23ZM487.17 1023.74H489.354L483.678 1030.09L489.822 1036.89H487.494L481.494 1030.23V1036.89H479.502V1023.74H481.494V1030.14L487.17 1023.74ZM500.357 1036.89L499.961 1035.02H499.865C499.209 1035.85 498.553 1036.41 497.897 1036.7C497.249 1036.99 496.437 1037.13 495.461 1037.13C494.157 1037.13 493.133 1036.8 492.39 1036.13C491.654 1035.45 491.286 1034.5 491.286 1033.26C491.286 1030.6 493.409 1029.21 497.657 1029.08L499.889 1029.01V1028.19C499.889 1027.16 499.665 1026.4 499.217 1025.91C498.777 1025.42 498.069 1025.17 497.093 1025.17C495.997 1025.17 494.757 1025.51 493.373 1026.18L492.761 1024.65C493.409 1024.3 494.117 1024.03 494.885 1023.83C495.661 1023.63 496.437 1023.53 497.213 1023.53C498.781 1023.53 499.941 1023.87 500.693 1024.57C501.453 1025.27 501.833 1026.38 501.833 1027.92V1036.89H500.357ZM495.857 1035.49C497.097 1035.49 498.069 1035.15 498.773 1034.47C499.485 1033.79 499.841 1032.84 499.841 1031.61V1030.43L497.849 1030.51C496.265 1030.57 495.121 1030.81 494.417 1031.25C493.721 1031.69 493.373 1032.36 493.373 1033.28C493.373 1034 493.589 1034.55 494.021 1034.93C494.461 1035.3 495.073 1035.49 495.857 1035.49Z" fill="#2E2E2E"/>
<path d="M957.07 994H952.01V973.673C952.01 971.247 952.067 969.323 952.182 967.902C951.852 968.246 951.443 968.627 950.955 969.043C950.481 969.459 948.873 970.78 946.131 973.005L943.591 969.797L952.85 962.519H957.07V994ZM989.865 987.131H985.623V994H980.692V987.131H966.308V983.233L980.692 962.432H985.623V982.932H989.865V987.131ZM980.692 982.932V975.029C980.692 972.216 980.764 969.912 980.908 968.117H980.735C980.333 969.065 979.702 970.213 978.84 971.562L971.024 982.932H980.692ZM1013.94 978.259C1013.94 983.729 1013.06 987.791 1011.29 990.447C1009.54 993.103 1006.85 994.431 1003.24 994.431C999.735 994.431 997.079 993.06 995.27 990.318C993.461 987.576 992.557 983.556 992.557 978.259C992.557 972.704 993.433 968.612 995.184 965.985C996.95 963.344 999.634 962.023 1003.24 962.023C1006.75 962.023 1009.42 963.401 1011.23 966.158C1013.03 968.914 1013.94 972.948 1013.94 978.259ZM997.682 978.259C997.682 982.552 998.12 985.616 998.995 987.454C999.885 989.291 1001.3 990.21 1003.24 990.21C1005.18 990.21 1006.59 989.277 1007.48 987.411C1008.38 985.545 1008.84 982.494 1008.84 978.259C1008.84 974.039 1008.38 970.988 1007.48 969.108C1006.59 967.213 1005.18 966.265 1003.24 966.265C1001.3 966.265 999.885 967.191 998.995 969.043C998.12 970.895 997.682 973.967 997.682 978.259ZM1039.13 978.259C1039.13 983.729 1038.25 987.791 1036.48 990.447C1034.73 993.103 1032.05 994.431 1028.43 994.431C1024.93 994.431 1022.27 993.06 1020.46 990.318C1018.66 987.576 1017.75 983.556 1017.75 978.259C1017.75 972.704 1018.63 968.612 1020.38 965.985C1022.14 963.344 1024.83 962.023 1028.43 962.023C1031.95 962.023 1034.61 963.401 1036.42 966.158C1038.23 968.914 1039.13 972.948 1039.13 978.259ZM1022.88 978.259C1022.88 982.552 1023.31 985.616 1024.19 987.454C1025.08 989.291 1026.49 990.21 1028.43 990.21C1030.37 990.21 1031.78 989.277 1032.67 987.411C1033.58 985.545 1034.03 982.494 1034.03 978.259C1034.03 974.039 1033.58 970.988 1032.67 969.108C1031.78 967.213 1030.37 966.265 1028.43 966.265C1026.49 966.265 1025.08 967.191 1024.19 969.043C1023.31 970.895 1022.88 973.967 1022.88 978.259ZM1064.33 978.259C1064.33 983.729 1063.44 987.791 1061.68 990.447C1059.93 993.103 1057.24 994.431 1053.62 994.431C1050.12 994.431 1047.47 993.06 1045.66 990.318C1043.85 987.576 1042.94 983.556 1042.94 978.259C1042.94 972.704 1043.82 968.612 1045.57 965.985C1047.34 963.344 1050.02 962.023 1053.62 962.023C1057.14 962.023 1059.81 963.401 1061.61 966.158C1063.42 968.914 1064.33 972.948 1064.33 978.259ZM1048.07 978.259C1048.07 982.552 1048.51 985.616 1049.38 987.454C1050.27 989.291 1051.69 990.21 1053.62 990.21C1055.56 990.21 1056.98 989.277 1057.87 987.411C1058.77 985.545 1059.22 982.494 1059.22 978.259C1059.22 974.039 1058.77 970.988 1057.87 969.108C1056.98 967.213 1055.56 966.265 1053.62 966.265C1051.69 966.265 1050.27 967.191 1049.38 969.043C1048.51 970.895 1048.07 973.967 1048.07 978.259ZM1089.52 978.259C1089.52 983.729 1088.64 987.791 1086.87 990.447C1085.12 993.103 1082.44 994.431 1078.82 994.431C1075.32 994.431 1072.66 993.06 1070.85 990.318C1069.04 987.576 1068.14 983.556 1068.14 978.259C1068.14 972.704 1069.01 968.612 1070.77 965.985C1072.53 963.344 1075.22 962.023 1078.82 962.023C1082.34 962.023 1085 963.401 1086.81 966.158C1088.62 968.914 1089.52 972.948 1089.52 978.259ZM1073.26 978.259C1073.26 982.552 1073.7 985.616 1074.58 987.454C1075.47 989.291 1076.88 990.21 1078.82 990.21C1080.76 990.21 1082.17 989.277 1083.06 987.411C1083.97 985.545 1084.42 982.494 1084.42 978.259C1084.42 974.039 1083.97 970.988 1083.06 969.108C1082.17 967.213 1080.76 966.265 1078.82 966.265C1076.88 966.265 1075.47 967.191 1074.58 969.043C1073.7 970.895 1073.26 973.967 1073.26 978.259ZM1092.32 962.513H1116.09V968.069H1092.32V962.513ZM1107.53 994H1100.87V976.713H1092.32V971.156H1116.09V976.713H1107.53V994Z" fill="#21A4A3"/>
<path d="M913.169 1036.7H903.419V1019.21H913.169V1021.02H905.453V1026.65H912.702V1028.45H905.453V1034.88H913.169V1036.7ZM922.739 1023.61H924.569V1029.97L929.989 1023.61H932.166L926.687 1029.97L932.632 1036.7H930.335L924.569 1030.06V1036.7H922.739V1030.06L916.985 1036.7H914.7L920.634 1029.97L915.167 1023.61H917.344L922.739 1029.97V1023.61ZM940.336 1036.94C938.398 1036.94 936.867 1036.35 935.743 1035.17C934.626 1033.99 934.068 1032.35 934.068 1030.25C934.068 1028.14 934.586 1026.46 935.623 1025.22C936.668 1023.97 938.067 1023.35 939.822 1023.35C941.465 1023.35 942.765 1023.89 943.722 1024.98C944.679 1026.05 945.157 1027.48 945.157 1029.25V1030.5H936.125C936.165 1032.04 936.552 1033.21 937.286 1034.01C938.028 1034.81 939.068 1035.2 940.408 1035.2C941.82 1035.2 943.215 1034.91 944.595 1034.32V1036.09C943.893 1036.39 943.227 1036.61 942.597 1036.74C941.975 1036.87 941.222 1036.94 940.336 1036.94ZM939.798 1025.01C938.745 1025.01 937.904 1025.36 937.274 1026.04C936.652 1026.73 936.285 1027.68 936.173 1028.89H943.028C943.028 1027.64 942.749 1026.68 942.191 1026.02C941.632 1025.35 940.835 1025.01 939.798 1025.01ZM955.362 1034.79L955.733 1033.67L956.247 1032.26L959.8 1023.61H962.324V1036.7H960.566V1025.87L960.326 1026.57L959.632 1028.4L956.247 1036.7H954.584L951.199 1028.37C950.776 1027.31 950.485 1026.47 950.325 1025.87V1036.7H948.555V1023.61H950.983L954.417 1031.93C954.76 1032.8 955.075 1033.76 955.362 1034.79ZM972.11 1036.94C970.172 1036.94 968.641 1036.35 967.516 1035.17C966.399 1033.99 965.841 1032.35 965.841 1030.25C965.841 1028.14 966.36 1026.46 967.396 1025.22C968.441 1023.97 969.841 1023.35 971.595 1023.35C973.238 1023.35 974.538 1023.89 975.495 1024.98C976.452 1026.05 976.931 1027.48 976.931 1029.25V1030.5H967.899C967.939 1032.04 968.326 1033.21 969.059 1034.01C969.801 1034.81 970.842 1035.2 972.182 1035.2C973.593 1035.2 974.989 1034.91 976.369 1034.32V1036.09C975.667 1036.39 975.001 1036.61 974.371 1036.74C973.749 1036.87 972.995 1036.94 972.11 1036.94ZM971.571 1025.01C970.519 1025.01 969.677 1025.36 969.047 1026.04C968.425 1026.73 968.058 1027.68 967.947 1028.89H974.801C974.801 1027.64 974.522 1026.68 973.964 1026.02C973.406 1025.35 972.608 1025.01 971.571 1025.01ZM985.568 1036.94C983.67 1036.94 982.198 1036.36 981.154 1035.19C980.117 1034.02 979.599 1032.37 979.599 1030.23C979.599 1028.04 980.125 1026.34 981.178 1025.14C982.238 1023.95 983.746 1023.35 985.7 1023.35C986.33 1023.35 986.96 1023.42 987.59 1023.55C988.22 1023.69 988.714 1023.85 989.073 1024.03L988.463 1025.72C988.024 1025.54 987.546 1025.4 987.027 1025.29C986.509 1025.17 986.05 1025.11 985.652 1025.11C982.988 1025.11 981.656 1026.81 981.656 1030.2C981.656 1031.82 981.979 1033.05 982.625 1033.91C983.279 1034.77 984.244 1035.2 985.52 1035.2C986.613 1035.2 987.733 1034.97 988.882 1034.5V1036.26C988.004 1036.71 986.9 1036.94 985.568 1036.94ZM992.662 1036.7H990.341L994.109 1031.16C993.097 1030.94 992.319 1030.51 991.777 1029.87C991.242 1029.22 990.975 1028.41 990.975 1027.44C990.975 1026.24 991.378 1025.3 992.183 1024.62C992.989 1023.93 994.113 1023.59 995.557 1023.59H1001.39V1036.7H999.409V1031.46H996.095L992.662 1036.7ZM992.913 1027.46C992.913 1028.98 994.014 1029.74 996.215 1029.74H999.409V1025.31H995.808C993.878 1025.31 992.913 1026.03 992.913 1027.46ZM1007.36 1023.59V1028.37C1007.36 1029.91 1008.24 1030.67 1009.98 1030.67C1010.71 1030.67 1011.4 1030.56 1012.07 1030.34C1012.73 1030.11 1013.48 1029.73 1014.31 1029.2V1023.59H1016.3V1036.7H1014.31V1030.77C1013.48 1031.34 1012.7 1031.75 1011.98 1031.99C1011.27 1032.22 1010.47 1032.33 1009.57 1032.33C1008.26 1032.33 1007.23 1031.99 1006.49 1031.3C1005.75 1030.62 1005.38 1029.69 1005.38 1028.52V1023.59H1007.36ZM1022.51 1023.59V1029.08H1029.85V1023.59H1031.84V1036.7H1029.85V1030.79H1022.51V1036.7H1020.52V1023.59H1022.51ZM1038.04 1029.01H1041.61C1043.28 1029.01 1044.51 1029.32 1045.31 1029.94C1046.12 1030.56 1046.52 1031.48 1046.52 1032.7C1046.52 1034.02 1046.09 1035.02 1045.24 1035.7C1044.39 1036.37 1043.15 1036.7 1041.49 1036.7H1036.05V1023.59H1038.04V1029.01ZM1050.71 1036.7H1048.72V1023.59H1050.71V1036.7ZM1038.04 1030.72V1035.04H1041.4C1043.5 1035.04 1044.56 1034.3 1044.56 1032.82C1044.56 1032.09 1044.31 1031.56 1043.83 1031.22C1043.34 1030.89 1042.51 1030.72 1041.34 1030.72H1038.04ZM1056.79 1023.59V1031.9L1056.71 1034.08L1056.68 1034.76L1063.77 1023.59H1066.25V1036.7H1064.39V1028.69L1064.43 1027.11L1064.49 1025.55L1057.4 1036.7H1054.93V1023.59H1056.79ZM1060.54 1021.85C1059.06 1021.85 1057.99 1021.57 1057.31 1021C1056.63 1020.43 1056.25 1019.49 1056.17 1018.18H1058.04C1058.11 1019.01 1058.33 1019.59 1058.69 1019.92C1059.05 1020.24 1059.69 1020.41 1060.59 1020.41C1061.41 1020.41 1062.01 1020.23 1062.41 1019.88C1062.8 1019.53 1063.05 1018.96 1063.14 1018.18H1065.01C1064.92 1019.44 1064.51 1020.37 1063.81 1020.97C1063.1 1021.56 1062.01 1021.85 1060.54 1021.85ZM1093.82 1026.88C1093.82 1027.73 1093.57 1028.38 1093.08 1028.83C1092.59 1029.27 1091.91 1029.56 1091.02 1029.71V1029.82C1092.14 1029.97 1092.95 1030.3 1093.46 1030.8C1093.98 1031.3 1094.24 1032 1094.24 1032.88C1094.24 1034.1 1093.79 1035.05 1092.89 1035.71C1091.99 1036.37 1090.69 1036.7 1088.96 1036.7H1083.18V1023.59H1088.94C1092.19 1023.59 1093.82 1024.69 1093.82 1026.88ZM1092.25 1032.75C1092.25 1032.04 1091.98 1031.53 1091.44 1031.21C1090.9 1030.88 1090.02 1030.72 1088.77 1030.72H1085.17V1035.04H1088.82C1091.11 1035.04 1092.25 1034.28 1092.25 1032.75ZM1091.88 1027.07C1091.88 1026.43 1091.63 1025.98 1091.14 1025.72C1090.65 1025.45 1089.91 1025.31 1088.92 1025.31H1085.17V1029.01H1088.53C1089.76 1029.01 1090.63 1028.86 1091.13 1028.55C1091.63 1028.25 1091.88 1027.76 1091.88 1027.07ZM1099.63 1029.03C1102.11 1029.03 1103.35 1028.35 1103.35 1026.97C1103.35 1025.68 1102.35 1025.04 1100.34 1025.04C1099.73 1025.04 1099.17 1025.09 1098.66 1025.2C1098.16 1025.32 1097.5 1025.54 1096.69 1025.87L1095.99 1024.26C1097.34 1023.65 1098.82 1023.35 1100.42 1023.35C1101.93 1023.35 1103.12 1023.66 1103.99 1024.28C1104.86 1024.9 1105.29 1025.74 1105.29 1026.81C1105.29 1028.27 1104.47 1029.24 1102.84 1029.69V1029.79C1103.84 1030.08 1104.58 1030.5 1105.04 1031.05C1105.5 1031.6 1105.73 1032.28 1105.73 1033.1C1105.73 1034.31 1105.24 1035.26 1104.26 1035.93C1103.29 1036.6 1101.94 1036.94 1100.22 1036.94C1098.33 1036.94 1096.87 1036.66 1095.84 1036.09V1034.27C1097.3 1034.96 1098.78 1035.3 1100.27 1035.3C1101.42 1035.3 1102.28 1035.11 1102.86 1034.71C1103.45 1034.32 1103.75 1033.75 1103.75 1033C1103.75 1031.48 1102.51 1030.72 1100.03 1030.72H1098.21V1029.03H1099.63ZM1110.96 1023.59V1029.08H1118.31V1023.59H1120.29V1036.7H1118.31V1030.79H1110.96V1036.7H1108.98V1023.59H1110.96ZM1135.82 1030.13C1135.82 1032.27 1135.28 1033.94 1134.21 1035.15C1133.13 1036.34 1131.64 1036.94 1129.74 1036.94C1128.57 1036.94 1127.53 1036.66 1126.62 1036.11C1125.71 1035.56 1125.01 1034.77 1124.52 1033.75C1124.02 1032.72 1123.77 1031.51 1123.77 1030.13C1123.77 1028 1124.31 1026.33 1125.38 1025.14C1126.45 1023.95 1127.93 1023.35 1129.83 1023.35C1131.66 1023.35 1133.12 1023.96 1134.19 1025.18C1135.28 1026.4 1135.82 1028.05 1135.82 1030.13ZM1125.83 1030.13C1125.83 1031.81 1126.17 1033.08 1126.84 1033.96C1127.51 1034.84 1128.49 1035.28 1129.79 1035.28C1131.09 1035.28 1132.08 1034.84 1132.75 1033.97C1133.42 1033.1 1133.76 1031.82 1133.76 1030.13C1133.76 1028.47 1133.42 1027.2 1132.75 1026.34C1132.08 1025.47 1131.08 1025.04 1129.77 1025.04C1128.47 1025.04 1127.49 1025.46 1126.83 1026.32C1126.16 1027.17 1125.83 1028.44 1125.83 1030.13ZM1144.55 1036.94C1142.66 1036.94 1141.18 1036.36 1140.14 1035.19C1139.1 1034.02 1138.58 1032.37 1138.58 1030.23C1138.58 1028.04 1139.11 1026.34 1140.16 1025.14C1141.22 1023.95 1142.73 1023.35 1144.69 1023.35C1145.32 1023.35 1145.95 1023.42 1146.58 1023.55C1147.21 1023.69 1147.7 1023.85 1148.06 1024.03L1147.45 1025.72C1147.01 1025.54 1146.53 1025.4 1146.01 1025.29C1145.5 1025.17 1145.04 1025.11 1144.64 1025.11C1141.97 1025.11 1140.64 1026.81 1140.64 1030.2C1140.64 1031.82 1140.97 1033.05 1141.61 1033.91C1142.27 1034.77 1143.23 1035.2 1144.51 1035.2C1145.6 1035.2 1146.72 1034.97 1147.87 1034.5V1036.26C1146.99 1036.71 1145.89 1036.94 1144.55 1036.94Z" fill="#2E2E2E"/>
<path d="M1570 994H1548.67V990.167L1556.78 982.006C1559.18 979.551 1560.77 977.814 1561.54 976.795C1562.33 975.761 1562.91 974.792 1563.26 973.888C1563.62 972.984 1563.8 972.015 1563.8 970.981C1563.8 969.56 1563.37 968.44 1562.51 967.622C1561.66 966.804 1560.49 966.395 1558.98 966.395C1557.77 966.395 1556.6 966.617 1555.47 967.062C1554.35 967.507 1553.05 968.311 1551.57 969.474L1548.84 966.136C1550.59 964.658 1552.29 963.61 1553.94 962.992C1555.59 962.375 1557.35 962.066 1559.22 962.066C1562.15 962.066 1564.49 962.834 1566.26 964.37C1568.02 965.892 1568.91 967.945 1568.91 970.529C1568.91 971.95 1568.65 973.3 1568.13 974.577C1567.63 975.855 1566.85 977.175 1565.78 978.539C1564.74 979.889 1562.98 981.719 1560.53 984.03L1555.06 989.327V989.543H1570V994ZM1584.54 974.34C1587.71 974.34 1590.22 975.18 1592.08 976.86C1593.93 978.539 1594.85 980.829 1594.85 983.729C1594.85 987.088 1593.8 989.715 1591.69 991.61C1589.59 993.49 1586.61 994.431 1582.73 994.431C1579.21 994.431 1576.45 993.864 1574.44 992.73V988.143C1575.6 988.803 1576.94 989.313 1578.45 989.672C1579.95 990.031 1581.35 990.21 1582.64 990.21C1584.93 990.21 1586.66 989.701 1587.86 988.681C1589.05 987.662 1589.64 986.169 1589.64 984.202C1589.64 980.441 1587.25 978.561 1582.45 978.561C1581.78 978.561 1580.94 978.633 1579.95 978.776C1578.96 978.905 1578.09 979.056 1577.35 979.228L1575.09 977.893L1576.29 962.519H1592.66V967.019H1580.75L1580.04 974.814C1580.54 974.728 1581.15 974.627 1581.87 974.513C1582.6 974.398 1583.49 974.34 1584.54 974.34ZM1620.39 978.259C1620.39 983.729 1619.51 987.791 1617.74 990.447C1615.99 993.103 1613.31 994.431 1609.69 994.431C1606.19 994.431 1603.53 993.06 1601.72 990.318C1599.91 987.576 1599.01 983.556 1599.01 978.259C1599.01 972.704 1599.89 968.612 1601.64 965.985C1603.4 963.344 1606.09 962.023 1609.69 962.023C1613.21 962.023 1615.87 963.401 1617.68 966.158C1619.49 968.914 1620.39 972.948 1620.39 978.259ZM1604.13 978.259C1604.13 982.552 1604.57 985.616 1605.45 987.454C1606.34 989.291 1607.75 990.21 1609.69 990.21C1611.63 990.21 1613.04 989.277 1613.93 987.411C1614.84 985.545 1615.29 982.494 1615.29 978.259C1615.29 974.039 1614.84 970.988 1613.93 969.108C1613.04 967.213 1611.63 966.265 1609.69 966.265C1607.75 966.265 1606.34 967.191 1605.45 969.043C1604.57 970.895 1604.13 973.967 1604.13 978.259ZM1645.59 978.259C1645.59 983.729 1644.7 987.791 1642.94 990.447C1641.19 993.103 1638.5 994.431 1634.88 994.431C1631.38 994.431 1628.73 993.06 1626.92 990.318C1625.11 987.576 1624.2 983.556 1624.2 978.259C1624.2 972.704 1625.08 968.612 1626.83 965.985C1628.6 963.344 1631.28 962.023 1634.88 962.023C1638.4 962.023 1641.06 963.401 1642.87 966.158C1644.68 968.914 1645.59 972.948 1645.59 978.259ZM1629.33 978.259C1629.33 982.552 1629.77 985.616 1630.64 987.454C1631.53 989.291 1632.95 990.21 1634.88 990.21C1636.82 990.21 1638.24 989.277 1639.13 987.411C1640.03 985.545 1640.48 982.494 1640.48 978.259C1640.48 974.039 1640.03 970.988 1639.13 969.108C1638.24 967.213 1636.82 966.265 1634.88 966.265C1632.95 966.265 1631.53 967.191 1630.64 969.043C1629.77 970.895 1629.33 973.967 1629.33 978.259ZM1670.78 978.259C1670.78 983.729 1669.9 987.791 1668.13 990.447C1666.38 993.103 1663.7 994.431 1660.08 994.431C1656.57 994.431 1653.92 993.06 1652.11 990.318C1650.3 987.576 1649.4 983.556 1649.4 978.259C1649.4 972.704 1650.27 968.612 1652.02 965.985C1653.79 963.344 1656.47 962.023 1660.08 962.023C1663.59 962.023 1666.26 963.401 1668.07 966.158C1669.88 968.914 1670.78 972.948 1670.78 978.259ZM1654.52 978.259C1654.52 982.552 1654.96 985.616 1655.84 987.454C1656.73 989.291 1658.14 990.21 1660.08 990.21C1662.02 990.21 1663.43 989.277 1664.32 987.411C1665.22 985.545 1665.68 982.494 1665.68 978.259C1665.68 974.039 1665.22 970.988 1664.32 969.108C1663.43 967.213 1662.02 966.265 1660.08 966.265C1658.14 966.265 1656.73 967.191 1655.84 969.043C1654.96 970.895 1654.52 973.967 1654.52 978.259ZM1695.97 978.259C1695.97 983.729 1695.09 987.791 1693.32 990.447C1691.57 993.103 1688.89 994.431 1685.27 994.431C1681.77 994.431 1679.11 993.06 1677.3 990.318C1675.5 987.576 1674.59 983.556 1674.59 978.259C1674.59 972.704 1675.47 968.612 1677.22 965.985C1678.98 963.344 1681.67 962.023 1685.27 962.023C1688.79 962.023 1691.45 963.401 1693.26 966.158C1695.07 968.914 1695.97 972.948 1695.97 978.259ZM1679.72 978.259C1679.72 982.552 1680.15 985.616 1681.03 987.454C1681.92 989.291 1683.33 990.21 1685.27 990.21C1687.21 990.21 1688.62 989.277 1689.51 987.411C1690.42 985.545 1690.87 982.494 1690.87 978.259C1690.87 974.039 1690.42 970.988 1689.51 969.108C1688.62 967.213 1687.21 966.265 1685.27 966.265C1683.33 966.265 1681.92 967.191 1681.03 969.043C1680.15 970.895 1679.72 973.967 1679.72 978.259ZM1721.17 978.259C1721.17 983.729 1720.28 987.791 1718.52 990.447C1716.77 993.103 1714.08 994.431 1710.47 994.431C1706.96 994.431 1704.31 993.06 1702.5 990.318C1700.69 987.576 1699.78 983.556 1699.78 978.259C1699.78 972.704 1700.66 968.612 1702.41 965.985C1704.18 963.344 1706.86 962.023 1710.47 962.023C1713.98 962.023 1716.65 963.401 1718.45 966.158C1720.26 968.914 1721.17 972.948 1721.17 978.259ZM1704.91 978.259C1704.91 982.552 1705.35 985.616 1706.22 987.454C1707.11 989.291 1708.53 990.21 1710.47 990.21C1712.4 990.21 1713.82 989.277 1714.71 987.411C1715.61 985.545 1716.06 982.494 1716.06 978.259C1716.06 974.039 1715.61 970.988 1714.71 969.108C1713.82 967.213 1712.4 966.265 1710.47 966.265C1708.53 966.265 1707.11 967.191 1706.22 969.043C1705.35 970.895 1704.91 973.967 1704.91 978.259ZM1723.97 962.513H1747.74V968.069H1723.97V962.513ZM1739.18 994H1732.52V976.713H1723.97V971.156H1747.74V976.713H1739.18V994Z" fill="#21A4A3"/>
<path d="M1617.85 1027.93C1617.85 1030.73 1617.14 1032.93 1615.72 1034.53C1614.31 1036.14 1612.34 1036.94 1609.82 1036.94C1607.25 1036.94 1605.26 1036.15 1603.86 1034.58C1602.46 1033 1601.76 1030.78 1601.76 1027.91C1601.76 1025.06 1602.46 1022.86 1603.87 1021.29C1605.27 1019.72 1607.26 1018.94 1609.85 1018.94C1612.36 1018.94 1614.32 1019.73 1615.73 1021.33C1617.15 1022.92 1617.85 1025.12 1617.85 1027.93ZM1603.92 1027.93C1603.92 1030.3 1604.42 1032.1 1605.42 1033.33C1606.44 1034.55 1607.9 1035.16 1609.82 1035.16C1611.76 1035.16 1613.23 1034.55 1614.22 1033.33C1615.2 1032.11 1615.7 1030.31 1615.7 1027.93C1615.7 1025.58 1615.2 1023.8 1614.22 1022.58C1613.23 1021.36 1611.78 1020.75 1609.85 1020.75C1607.91 1020.75 1606.44 1021.37 1605.42 1022.6C1604.42 1023.82 1603.92 1025.59 1603.92 1027.93ZM1626.7 1036.94C1624.81 1036.94 1623.33 1036.36 1622.29 1035.19C1621.25 1034.02 1620.73 1032.37 1620.73 1030.23C1620.73 1028.04 1621.26 1026.34 1622.31 1025.14C1623.37 1023.95 1624.88 1023.35 1626.84 1023.35C1627.47 1023.35 1628.1 1023.42 1628.73 1023.55C1629.36 1023.69 1629.85 1023.85 1630.21 1024.03L1629.6 1025.72C1629.16 1025.54 1628.68 1025.4 1628.16 1025.29C1627.65 1025.17 1627.19 1025.11 1626.79 1025.11C1624.12 1025.11 1622.79 1026.81 1622.79 1030.2C1622.79 1031.82 1623.12 1033.05 1623.76 1033.91C1624.42 1034.77 1625.38 1035.2 1626.66 1035.2C1627.75 1035.2 1628.87 1034.97 1630.02 1034.5V1036.26C1629.14 1036.71 1628.04 1036.94 1626.7 1036.94ZM1641.98 1025.29H1637.72V1036.7H1635.74V1025.29H1631.53V1023.59H1641.98V1025.29ZM1652.64 1036.7L1652.24 1034.83H1652.15C1651.5 1035.66 1650.84 1036.21 1650.19 1036.51C1649.54 1036.8 1648.73 1036.94 1647.76 1036.94C1646.46 1036.94 1645.44 1036.6 1644.7 1035.93C1643.96 1035.26 1643.6 1034.31 1643.6 1033.08C1643.6 1030.43 1645.71 1029.04 1649.95 1028.91L1652.17 1028.84V1028.03C1652.17 1027 1651.95 1026.24 1651.5 1025.75C1651.06 1025.26 1650.36 1025.01 1649.39 1025.01C1648.29 1025.01 1647.06 1025.35 1645.68 1026.02L1645.07 1024.5C1645.71 1024.15 1646.42 1023.87 1647.18 1023.67C1647.96 1023.47 1648.73 1023.37 1649.51 1023.37C1651.07 1023.37 1652.23 1023.72 1652.97 1024.41C1653.73 1025.11 1654.11 1026.22 1654.11 1027.75V1036.7H1652.64ZM1648.15 1035.3C1649.39 1035.3 1650.36 1034.96 1651.06 1034.28C1651.77 1033.61 1652.13 1032.66 1652.13 1031.44V1030.25L1650.14 1030.34C1648.56 1030.39 1647.42 1030.64 1646.72 1031.08C1646.02 1031.51 1645.68 1032.18 1645.68 1033.1C1645.68 1033.82 1645.89 1034.36 1646.32 1034.74C1646.76 1035.11 1647.37 1035.3 1648.15 1035.3ZM1667.05 1025.29H1662.8V1036.7H1660.81V1025.29H1656.6V1023.59H1667.05V1025.29ZM1680.97 1030.13C1680.97 1032.27 1680.43 1033.94 1679.35 1035.15C1678.28 1036.34 1676.79 1036.94 1674.89 1036.94C1673.72 1036.94 1672.68 1036.66 1671.77 1036.11C1670.86 1035.56 1670.16 1034.77 1669.66 1033.75C1669.17 1032.72 1668.92 1031.51 1668.92 1030.13C1668.92 1028 1669.46 1026.33 1670.52 1025.14C1671.59 1023.95 1673.08 1023.35 1674.97 1023.35C1676.81 1023.35 1678.26 1023.96 1679.34 1025.18C1680.43 1026.4 1680.97 1028.05 1680.97 1030.13ZM1670.98 1030.13C1670.98 1031.81 1671.31 1033.08 1671.98 1033.96C1672.65 1034.84 1673.64 1035.28 1674.94 1035.28C1676.24 1035.28 1677.22 1034.84 1677.89 1033.97C1678.57 1033.1 1678.91 1031.82 1678.91 1030.13C1678.91 1028.47 1678.57 1027.2 1677.89 1026.34C1677.22 1025.47 1676.23 1025.04 1674.91 1025.04C1673.61 1025.04 1672.63 1025.46 1671.97 1026.32C1671.31 1027.17 1670.98 1028.44 1670.98 1030.13ZM1692.11 1023.59H1694.28L1688.62 1029.92L1694.75 1036.7H1692.43L1686.45 1030.06V1036.7H1684.46V1023.59H1686.45V1029.97L1692.11 1023.59Z" fill="#2E2E2E"/>
<g filter="url(#filter3_d)">
<rect x="1017" y="93" width="13" height="777" rx="6.5" fill="white"/>
</g>
<path d="M1017 797H1030V863.5C1030 867.09 1027.09 870 1023.5 870C1019.91 870 1017 867.09 1017 863.5V797Z" fill="#008B8A"/>
<ellipse cx="1024" cy="730" rx="11" ry="10" fill="#F78F2F"/>
<ellipse cx="1024" cy="598" rx="11" ry="10" fill="#F78F2F"/>
<ellipse cx="1024" cy="454" rx="11" ry="10" fill="#F78F2F"/>
<path d="M1044 377L1091 415.542H1066.6V452H1044V377Z" fill="#21A4A3"/>
<path d="M1087.83 439H1084.95V423.886H1077.19V439H1074.32V421.422H1087.83V439ZM1103.97 432.327C1103.97 434.499 1103.41 436.195 1102.3 437.413C1101.19 438.631 1099.63 439.24 1097.65 439.24C1096.4 439.24 1095.31 438.96 1094.35 438.399C1093.4 437.838 1092.66 437.032 1092.15 435.982C1091.64 434.932 1091.38 433.714 1091.38 432.327C1091.38 430.171 1091.93 428.487 1093.04 427.277C1094.15 426.067 1095.71 425.462 1097.72 425.462C1099.64 425.462 1101.16 426.083 1102.29 427.325C1103.41 428.56 1103.97 430.227 1103.97 432.327ZM1094.29 432.327C1094.29 435.397 1095.43 436.932 1097.69 436.932C1099.94 436.932 1101.06 435.397 1101.06 432.327C1101.06 429.289 1099.93 427.77 1097.67 427.77C1096.48 427.77 1095.62 428.163 1095.09 428.948C1094.56 429.734 1094.29 430.86 1094.29 432.327ZM1118.16 439H1115.31V427.914H1111.64C1111.42 430.768 1111.11 432.996 1110.73 434.599C1110.35 436.203 1109.85 437.373 1109.24 438.11C1108.63 438.848 1107.83 439.216 1106.86 439.216C1106.24 439.216 1105.72 439.128 1105.31 438.952V436.74C1105.6 436.852 1105.9 436.908 1106.19 436.908C1107.01 436.908 1107.65 435.99 1108.12 434.155C1108.59 432.311 1108.96 429.493 1109.22 425.702H1118.16V439ZM1120.19 425.702H1123.27L1125.97 433.241C1126.38 434.315 1126.65 435.325 1126.79 436.271H1126.89C1126.96 435.83 1127.09 435.297 1127.28 434.672C1127.48 434.038 1128.49 431.048 1130.34 425.702H1133.39L1127.7 440.767C1126.67 443.533 1124.95 444.916 1122.53 444.916C1121.91 444.916 1121.3 444.847 1120.71 444.711V442.475C1121.13 442.571 1121.62 442.619 1122.16 442.619C1123.52 442.619 1124.48 441.83 1125.04 440.25L1125.53 439L1120.19 425.702ZM1137.9 425.702V430.56C1137.9 431.922 1138.61 432.604 1140.02 432.604C1140.7 432.604 1141.36 432.511 1142.01 432.327C1142.66 432.135 1143.36 431.83 1144.1 431.413V425.702H1146.93V439H1144.1V433.361C1143.33 433.842 1142.57 434.199 1141.84 434.431C1141.12 434.656 1140.33 434.768 1139.48 434.768C1138.09 434.768 1137.01 434.411 1136.23 433.698C1135.45 432.976 1135.06 431.97 1135.06 430.68V425.702H1137.9ZM1156.78 439.24C1154.71 439.24 1153.09 438.639 1151.92 437.437C1150.76 436.227 1150.18 434.563 1150.18 432.447C1150.18 430.275 1150.72 428.568 1151.8 427.325C1152.88 426.083 1154.37 425.462 1156.26 425.462C1158.02 425.462 1159.4 425.995 1160.42 427.061C1161.44 428.127 1161.95 429.594 1161.95 431.461V432.988H1153.09C1153.13 434.279 1153.48 435.273 1154.13 435.97C1154.79 436.659 1155.72 437.004 1156.91 437.004C1157.7 437.004 1158.42 436.932 1159.1 436.788C1159.78 436.635 1160.51 436.387 1161.29 436.042V438.339C1160.6 438.667 1159.9 438.9 1159.19 439.036C1158.49 439.172 1157.68 439.24 1156.78 439.24ZM1156.26 427.602C1155.36 427.602 1154.64 427.886 1154.1 428.455C1153.56 429.025 1153.24 429.854 1153.13 430.944H1159.17C1159.15 429.846 1158.89 429.016 1158.38 428.455C1157.86 427.886 1157.16 427.602 1156.26 427.602ZM1167.98 425.702V431.04H1174.25V425.702H1177.07V439H1174.25V433.265H1167.98V439H1165.16V425.702H1167.98ZM1183.83 425.702V432.519C1183.83 433.313 1183.77 434.479 1183.64 436.018L1190.31 425.702H1193.76V439H1191.04V432.303C1191.04 431.934 1191.06 431.337 1191.1 430.511C1191.15 429.686 1191.19 429.085 1191.22 428.708L1184.58 439H1181.13V425.702H1183.83ZM1203.6 439.24C1201.53 439.24 1199.91 438.639 1198.74 437.437C1197.58 436.227 1197 434.563 1197 432.447C1197 430.275 1197.54 428.568 1198.62 427.325C1199.7 426.083 1201.19 425.462 1203.08 425.462C1204.84 425.462 1206.22 425.995 1207.24 427.061C1208.26 428.127 1208.77 429.594 1208.77 431.461V432.988H1199.91C1199.95 434.279 1200.29 435.273 1200.95 435.97C1201.61 436.659 1202.54 437.004 1203.73 437.004C1204.51 437.004 1205.24 436.932 1205.92 436.788C1206.6 436.635 1207.33 436.387 1208.11 436.042V438.339C1207.42 438.667 1206.72 438.9 1206.01 439.036C1205.31 439.172 1204.5 439.24 1203.6 439.24ZM1203.08 427.602C1202.18 427.602 1201.46 427.886 1200.92 428.455C1200.38 429.025 1200.06 429.854 1199.95 430.944H1205.99C1205.97 429.846 1205.71 429.016 1205.2 428.455C1204.68 427.886 1203.98 427.602 1203.08 427.602ZM1082.27 459.702H1085.37L1079.88 466.111L1085.84 473H1082.59L1076.85 466.255V473H1074.02V459.702H1076.85V466.159L1082.27 459.702ZM1094.78 473.24C1093.1 473.24 1091.79 472.635 1090.86 471.425H1090.7C1090.81 472.547 1090.86 473.228 1090.86 473.469V478.916H1088.04V459.702H1090.32C1090.39 459.951 1090.52 460.544 1090.72 461.481H1090.86C1091.75 460.135 1093.07 459.462 1094.83 459.462C1096.49 459.462 1097.78 460.063 1098.7 461.265C1099.63 462.467 1100.1 464.155 1100.1 466.327C1100.1 468.499 1099.63 470.195 1098.68 471.413C1097.74 472.631 1096.44 473.24 1094.78 473.24ZM1094.1 461.77C1092.98 461.77 1092.16 462.099 1091.63 462.756C1091.12 463.413 1090.86 464.463 1090.86 465.906V466.327C1090.86 467.946 1091.12 469.12 1091.63 469.85C1092.15 470.571 1092.99 470.932 1094.15 470.932C1095.13 470.932 1095.88 470.531 1096.41 469.73C1096.94 468.928 1097.2 467.786 1097.2 466.303C1097.2 464.812 1096.94 463.686 1096.41 462.924C1095.89 462.155 1095.12 461.77 1094.1 461.77ZM1109.19 473.24C1107.12 473.24 1105.5 472.639 1104.33 471.437C1103.17 470.227 1102.59 468.563 1102.59 466.447C1102.59 464.275 1103.13 462.568 1104.21 461.325C1105.29 460.083 1106.78 459.462 1108.67 459.462C1110.43 459.462 1111.81 459.995 1112.83 461.061C1113.85 462.127 1114.36 463.594 1114.36 465.461V466.988H1105.5C1105.54 468.279 1105.89 469.273 1106.54 469.97C1107.2 470.659 1108.13 471.004 1109.32 471.004C1110.11 471.004 1110.84 470.932 1111.51 470.788C1112.19 470.635 1112.92 470.387 1113.7 470.042V472.339C1113.01 472.667 1112.31 472.9 1111.61 473.036C1110.9 473.172 1110.09 473.24 1109.19 473.24ZM1108.67 461.602C1107.77 461.602 1107.05 461.886 1106.51 462.455C1105.97 463.025 1105.65 463.854 1105.55 464.944H1111.58C1111.57 463.846 1111.3 463.016 1110.79 462.455C1110.27 461.886 1109.57 461.602 1108.67 461.602ZM1130.33 477.701H1127.69V473H1118.58V477.701H1115.97V470.812H1117.05C1118 469.457 1118.75 467.822 1119.3 465.906C1119.86 463.982 1120.19 461.914 1120.3 459.702H1128.38V470.812H1130.33V477.701ZM1125.6 470.812V461.866H1122.74C1122.59 463.517 1122.27 465.145 1121.78 466.748C1121.3 468.351 1120.71 469.706 1120.01 470.812H1125.6ZM1135.5 459.702V466.519C1135.5 467.313 1135.43 468.479 1135.3 470.018L1141.98 459.702H1145.43V473H1142.71V466.303C1142.71 465.934 1142.73 465.337 1142.77 464.511C1142.82 463.686 1142.86 463.085 1142.89 462.708L1136.24 473H1132.79V459.702H1135.5ZM1159.45 459.702V461.914H1155.12V473H1152.28V461.914H1147.95V459.702H1159.45ZM1170.33 473L1169.76 471.148H1169.67C1169.03 471.958 1168.38 472.511 1167.73 472.808C1167.08 473.096 1166.25 473.24 1165.23 473.24C1163.92 473.24 1162.9 472.888 1162.16 472.182C1161.43 471.477 1161.07 470.479 1161.07 469.189C1161.07 467.818 1161.58 466.784 1162.6 466.086C1163.62 465.389 1165.17 465.008 1167.25 464.944L1169.55 464.872V464.163C1169.55 463.313 1169.35 462.68 1168.95 462.263C1168.55 461.838 1167.94 461.626 1167.11 461.626C1166.42 461.626 1165.77 461.726 1165.15 461.926C1164.52 462.127 1163.92 462.363 1163.34 462.636L1162.43 460.616C1163.15 460.239 1163.94 459.955 1164.8 459.762C1165.65 459.562 1166.46 459.462 1167.23 459.462C1168.92 459.462 1170.19 459.83 1171.05 460.568C1171.92 461.305 1172.35 462.463 1172.35 464.042V473H1170.33ZM1166.12 471.076C1167.15 471.076 1167.97 470.792 1168.58 470.223C1169.21 469.645 1169.52 468.84 1169.52 467.806V466.652L1167.82 466.724C1166.48 466.772 1165.51 466.996 1164.91 467.397C1164.3 467.79 1164 468.395 1164 469.213C1164 469.806 1164.18 470.267 1164.53 470.595C1164.89 470.916 1165.41 471.076 1166.12 471.076ZM1179.23 470.415C1178.84 471.906 1178.14 473.826 1177.11 476.174H1175.03C1175.58 474.01 1176 471.998 1176.27 470.138H1179.05L1179.23 470.415ZM1194.64 473.24C1192.63 473.24 1191.1 472.655 1190.05 471.485C1189 470.307 1188.48 468.619 1188.48 466.423C1188.48 464.187 1189.03 462.467 1190.12 461.265C1191.22 460.063 1192.8 459.462 1194.87 459.462C1196.27 459.462 1197.53 459.722 1198.66 460.243L1197.8 462.516C1196.61 462.051 1195.62 461.818 1194.84 461.818C1192.54 461.818 1191.39 463.345 1191.39 466.399C1191.39 467.89 1191.68 469.012 1192.25 469.766C1192.82 470.511 1193.67 470.884 1194.77 470.884C1196.03 470.884 1197.22 470.571 1198.34 469.946V472.411C1197.84 472.707 1197.3 472.92 1196.72 473.048C1196.15 473.176 1195.46 473.24 1194.64 473.24ZM1211.46 459.702V461.914H1207.13V473H1204.29V461.914H1199.97V459.702H1211.46ZM1222.34 473L1221.78 471.148H1221.68C1221.04 471.958 1220.39 472.511 1219.74 472.808C1219.1 473.096 1218.26 473.24 1217.24 473.24C1215.94 473.24 1214.92 472.888 1214.18 472.182C1213.45 471.477 1213.08 470.479 1213.08 469.189C1213.08 467.818 1213.59 466.784 1214.61 466.086C1215.63 465.389 1217.18 465.008 1219.26 464.944L1221.56 464.872V464.163C1221.56 463.313 1221.36 462.68 1220.96 462.263C1220.57 461.838 1219.95 461.626 1219.12 461.626C1218.44 461.626 1217.78 461.726 1217.16 461.926C1216.53 462.127 1215.93 462.363 1215.36 462.636L1214.44 460.616C1215.16 460.239 1215.95 459.955 1216.81 459.762C1217.67 459.562 1218.48 459.462 1219.24 459.462C1220.93 459.462 1222.21 459.83 1223.06 460.568C1223.93 461.305 1224.36 462.463 1224.36 464.042V473H1222.34ZM1218.13 471.076C1219.16 471.076 1219.98 470.792 1220.6 470.223C1221.22 469.645 1221.54 468.84 1221.54 467.806V466.652L1219.83 466.724C1218.5 466.772 1217.53 466.996 1216.92 467.397C1216.32 467.79 1216.02 468.395 1216.02 469.213C1216.02 469.806 1216.19 470.267 1216.55 470.595C1216.9 470.916 1217.43 471.076 1218.13 471.076ZM1239.85 463.105C1239.85 464.676 1238.93 465.626 1237.09 465.954V466.05C1238.12 466.171 1238.91 466.495 1239.45 467.024C1240 467.553 1240.27 468.239 1240.27 469.08C1240.27 470.339 1239.79 471.309 1238.83 471.99C1237.87 472.663 1236.48 473 1234.65 473H1228.31V459.702H1234.63C1238.11 459.702 1239.85 460.836 1239.85 463.105ZM1237.37 468.912C1237.37 468.271 1237.12 467.818 1236.63 467.553C1236.13 467.281 1235.38 467.145 1234.39 467.145H1231.13V470.908H1234.46C1236.4 470.908 1237.37 470.243 1237.37 468.912ZM1237.02 463.345C1237.02 462.816 1236.81 462.435 1236.4 462.203C1235.99 461.962 1235.38 461.842 1234.56 461.842H1231.13V465.04H1234.14C1235.08 465.04 1235.8 464.92 1236.29 464.68C1236.78 464.431 1237.02 463.986 1237.02 463.345ZM1251.44 459.702H1254.54L1249.05 466.111L1255.01 473H1251.76L1246.02 466.255V473H1243.19V459.702H1246.02V466.159L1251.44 459.702ZM1265.53 473L1264.97 471.148H1264.87C1264.23 471.958 1263.58 472.511 1262.93 472.808C1262.28 473.096 1261.45 473.24 1260.43 473.24C1259.13 473.24 1258.1 472.888 1257.37 472.182C1256.64 471.477 1256.27 470.479 1256.27 469.189C1256.27 467.818 1256.78 466.784 1257.8 466.086C1258.82 465.389 1260.37 465.008 1262.45 464.944L1264.75 464.872V464.163C1264.75 463.313 1264.55 462.68 1264.15 462.263C1263.75 461.838 1263.14 461.626 1262.31 461.626C1261.63 461.626 1260.97 461.726 1260.35 461.926C1259.72 462.127 1259.12 462.363 1258.54 462.636L1257.63 460.616C1258.35 460.239 1259.14 459.955 1260 459.762C1260.86 459.562 1261.67 459.462 1262.43 459.462C1264.12 459.462 1265.39 459.83 1266.25 460.568C1267.12 461.305 1267.55 462.463 1267.55 464.042V473H1265.53ZM1261.32 471.076C1262.35 471.076 1263.17 470.792 1263.79 470.223C1264.41 469.645 1264.72 468.84 1264.72 467.806V466.652L1263.02 466.724C1261.69 466.772 1260.72 466.996 1260.11 467.397C1259.51 467.79 1259.21 468.395 1259.21 469.213C1259.21 469.806 1259.38 470.267 1259.73 470.595C1260.09 470.916 1260.62 471.076 1261.32 471.076ZM1282.92 462.023C1284.69 462.023 1286.09 462.491 1287.12 463.429C1288.16 464.367 1288.68 465.646 1288.68 467.265C1288.68 469.14 1288.09 470.607 1286.91 471.665C1285.74 472.715 1284.07 473.24 1281.91 473.24C1279.94 473.24 1278.4 472.924 1277.28 472.291V469.73C1277.93 470.098 1278.67 470.383 1279.51 470.583C1280.36 470.784 1281.14 470.884 1281.86 470.884C1283.13 470.884 1284.1 470.599 1284.77 470.03C1285.43 469.461 1285.77 468.627 1285.77 467.529C1285.77 465.429 1284.43 464.379 1281.75 464.379C1281.37 464.379 1280.91 464.419 1280.36 464.499C1279.8 464.572 1279.32 464.656 1278.9 464.752L1277.64 464.006L1278.31 455.422H1287.45V457.935H1280.8L1280.4 462.287C1280.68 462.239 1281.02 462.183 1281.43 462.119C1281.83 462.055 1282.33 462.023 1282.92 462.023ZM1293.29 460.688C1293.29 461.882 1293.41 462.772 1293.64 463.357C1293.87 463.942 1294.25 464.235 1294.78 464.235C1295.84 464.235 1296.37 463.053 1296.37 460.688C1296.37 458.323 1295.84 457.141 1294.78 457.141C1294.25 457.141 1293.87 457.434 1293.64 458.019C1293.41 458.604 1293.29 459.494 1293.29 460.688ZM1298.7 460.664C1298.7 462.507 1298.37 463.894 1297.71 464.824C1297.05 465.746 1296.07 466.207 1294.78 466.207C1293.56 466.207 1292.62 465.73 1291.95 464.776C1291.28 463.814 1290.95 462.443 1290.95 460.664C1290.95 457.001 1292.23 455.169 1294.78 455.169C1296.04 455.169 1297.01 455.646 1297.68 456.6C1298.36 457.546 1298.7 458.9 1298.7 460.664ZM1304.74 467.71C1304.74 468.904 1304.85 469.798 1305.09 470.391C1305.33 470.984 1305.71 471.281 1306.24 471.281C1307.29 471.281 1307.82 470.09 1307.82 467.71C1307.82 465.361 1307.29 464.187 1306.24 464.187C1305.71 464.187 1305.33 464.475 1305.09 465.052C1304.85 465.63 1304.74 466.515 1304.74 467.71ZM1310.15 467.71C1310.15 469.553 1309.82 470.936 1309.15 471.858C1308.49 472.78 1307.52 473.24 1306.24 473.24C1305.02 473.24 1304.08 472.768 1303.4 471.822C1302.73 470.868 1302.39 469.497 1302.39 467.71C1302.39 464.047 1303.68 462.215 1306.24 462.215C1307.48 462.215 1308.43 462.688 1309.12 463.634C1309.8 464.58 1310.15 465.938 1310.15 467.71ZM1306.58 455.422L1296.83 473H1294.49L1304.25 455.422H1306.58Z" fill="#008B8A"/>
<path d="M1008 755L965 790.458H987.319V824H1008V755Z" fill="#21A4A3"/>
<path d="M792.172 799.336H797.012C799.257 799.336 800.878 799.663 801.874 800.317C802.877 800.972 803.379 802.005 803.379 803.417C803.379 804.369 803.134 805.161 802.643 805.792C802.152 806.424 801.446 806.822 800.524 806.986V807.097C801.669 807.313 802.509 807.74 803.044 808.379C803.587 809.011 803.859 809.87 803.859 810.955C803.859 812.42 803.346 813.568 802.32 814.401C801.301 815.226 799.881 815.639 798.06 815.639H792.172V799.336ZM794.837 806.071H797.402C798.517 806.071 799.331 805.897 799.844 805.547C800.357 805.19 800.614 804.588 800.614 803.741C800.614 802.975 800.335 802.421 799.777 802.079C799.227 801.737 798.35 801.566 797.146 801.566H794.837V806.071ZM794.837 808.235V813.397H797.67C798.785 813.397 799.625 813.185 800.19 812.762C800.762 812.331 801.049 811.654 801.049 810.732C801.049 809.885 800.759 809.257 800.179 808.848C799.599 808.439 798.718 808.235 797.536 808.235H794.837ZM809.69 808.235C810.887 808.235 811.768 808.104 812.333 807.844C812.898 807.577 813.181 807.168 813.181 806.618C813.181 805.614 812.289 805.112 810.504 805.112C809.315 805.112 808.1 805.38 806.858 805.915L806.011 803.964C807.445 803.376 809.029 803.083 810.761 803.083C812.292 803.083 813.482 803.365 814.329 803.93C815.177 804.488 815.6 805.291 815.6 806.339C815.6 807.722 814.809 808.629 813.225 809.06V809.149C814.214 809.417 814.92 809.799 815.344 810.297C815.775 810.795 815.991 811.413 815.991 812.148C815.991 813.278 815.493 814.182 814.496 814.858C813.508 815.527 812.125 815.862 810.348 815.862C808.408 815.862 806.925 815.605 805.899 815.092V812.829C807.26 813.468 808.668 813.788 810.125 813.788C811.173 813.788 811.98 813.643 812.545 813.353C813.117 813.055 813.404 812.606 813.404 812.004C813.404 811.386 813.117 810.933 812.545 810.643C811.973 810.353 811.088 810.208 809.891 810.208H808.386V808.235H809.69ZM821.455 803.306V808.257H827.264V803.306H829.885V815.639H827.264V810.32H821.455V815.639H818.834V803.306H821.455ZM844.581 809.45C844.581 811.465 844.065 813.037 843.031 814.167C841.998 815.297 840.56 815.862 838.716 815.862C837.564 815.862 836.545 815.602 835.661 815.081C834.776 814.561 834.096 813.814 833.62 812.84C833.144 811.866 832.906 810.736 832.906 809.45C832.906 807.45 833.419 805.889 834.445 804.767C835.471 803.644 836.917 803.083 838.783 803.083C840.567 803.083 841.979 803.659 843.02 804.811C844.061 805.956 844.581 807.502 844.581 809.45ZM835.605 809.45C835.605 812.297 836.657 813.721 838.761 813.721C840.842 813.721 841.883 812.297 841.883 809.45C841.883 806.633 840.835 805.224 838.738 805.224C837.638 805.224 836.839 805.588 836.341 806.317C835.85 807.045 835.605 808.09 835.605 809.45ZM852.576 815.862C850.711 815.862 849.291 815.319 848.317 814.234C847.35 813.141 846.867 811.576 846.867 809.539C846.867 807.465 847.373 805.871 848.384 804.755C849.402 803.64 850.87 803.083 852.788 803.083C854.089 803.083 855.26 803.324 856.301 803.808L855.509 805.915C854.401 805.484 853.487 805.268 852.766 805.268C850.632 805.268 849.566 806.685 849.566 809.517C849.566 810.9 849.83 811.94 850.357 812.639C850.893 813.33 851.673 813.676 852.699 813.676C853.866 813.676 854.97 813.386 856.011 812.806V815.092C855.543 815.367 855.041 815.564 854.506 815.683C853.978 815.802 853.335 815.862 852.576 815.862ZM861.631 813.241C861.274 814.624 860.62 816.404 859.668 818.582H857.739C858.252 816.575 858.635 814.709 858.888 812.985H861.464L861.631 813.241ZM875.926 815.862C874.06 815.862 872.64 815.319 871.667 814.234C870.7 813.141 870.217 811.576 870.217 809.539C870.217 807.465 870.723 805.871 871.734 804.755C872.752 803.64 874.22 803.083 876.138 803.083C877.439 803.083 878.61 803.324 879.651 803.808L878.859 805.915C877.751 805.484 876.837 805.268 876.116 805.268C873.982 805.268 872.916 806.685 872.916 809.517C872.916 810.9 873.179 811.94 873.707 812.639C874.242 813.33 875.023 813.676 876.049 813.676C877.216 813.676 878.32 813.386 879.361 812.806V815.092C878.892 815.367 878.391 815.564 877.855 815.683C877.328 815.802 876.685 815.862 875.926 815.862ZM891.526 803.306V805.358H887.512V815.639H884.88V805.358H880.866V803.306H891.526ZM901.618 815.639L901.094 813.921H901.004C900.41 814.672 899.811 815.185 899.209 815.46C898.607 815.728 897.834 815.862 896.89 815.862C895.678 815.862 894.73 815.535 894.046 814.88C893.37 814.226 893.032 813.301 893.032 812.104C893.032 810.833 893.504 809.874 894.448 809.227C895.392 808.58 896.83 808.227 898.763 808.168L900.893 808.101V807.443C900.893 806.655 900.707 806.068 900.335 805.681C899.971 805.287 899.402 805.09 898.629 805.09C897.997 805.09 897.392 805.183 896.812 805.369C896.232 805.555 895.674 805.774 895.139 806.027L894.292 804.153C894.961 803.804 895.693 803.54 896.488 803.362C897.284 803.176 898.035 803.083 898.741 803.083C900.309 803.083 901.491 803.425 902.287 804.109C903.09 804.793 903.491 805.867 903.491 807.331V815.639H901.618ZM897.715 813.855C898.667 813.855 899.428 813.591 900.001 813.063C900.581 812.528 900.871 811.78 900.871 810.822V809.751L899.287 809.818C898.053 809.863 897.154 810.071 896.589 810.442C896.031 810.807 895.752 811.368 895.752 812.126C895.752 812.676 895.916 813.104 896.243 813.409C896.57 813.706 897.061 813.855 897.715 813.855ZM917.853 806.462C917.853 807.919 917.002 808.8 915.3 809.104V809.193C916.251 809.305 916.98 809.606 917.485 810.097C917.991 810.587 918.244 811.223 918.244 812.004C918.244 813.171 917.798 814.07 916.906 814.702C916.021 815.326 914.731 815.639 913.036 815.639H907.149V803.306H913.014C916.24 803.306 917.853 804.358 917.853 806.462ZM915.556 811.847C915.556 811.253 915.326 810.833 914.865 810.587C914.404 810.335 913.713 810.208 912.791 810.208H909.769V813.698H912.858C914.657 813.698 915.556 813.081 915.556 811.847ZM915.233 806.685C915.233 806.194 915.04 805.841 914.653 805.625C914.274 805.402 913.705 805.291 912.947 805.291H909.769V808.257H912.557C913.434 808.257 914.099 808.145 914.553 807.922C915.006 807.692 915.233 807.279 915.233 806.685ZM928.603 803.306H931.48L926.384 809.249L931.915 815.639H928.904L923.574 809.383V815.639H920.953V803.306H923.574V809.294L928.603 803.306ZM941.671 815.639L941.147 813.921H941.058C940.463 814.672 939.865 815.185 939.263 815.46C938.661 815.728 937.888 815.862 936.944 815.862C935.732 815.862 934.784 815.535 934.1 814.88C933.424 814.226 933.085 813.301 933.085 812.104C933.085 810.833 933.557 809.874 934.502 809.227C935.446 808.58 936.884 808.227 938.817 808.168L940.947 808.101V807.443C940.947 806.655 940.761 806.068 940.389 805.681C940.025 805.287 939.456 805.09 938.683 805.09C938.051 805.09 937.445 805.183 936.865 805.369C936.286 805.555 935.728 805.774 935.193 806.027L934.345 804.153C935.014 803.804 935.747 803.54 936.542 803.362C937.338 803.176 938.088 803.083 938.795 803.083C940.363 803.083 941.545 803.425 942.341 804.109C943.143 804.793 943.545 805.867 943.545 807.331V815.639H941.671ZM937.769 813.855C938.72 813.855 939.482 813.591 940.055 813.063C940.634 812.528 940.924 811.78 940.924 810.822V809.751L939.341 809.818C938.107 809.863 937.207 810.071 936.642 810.442C936.085 810.807 935.806 811.368 935.806 812.126C935.806 812.676 935.97 813.104 936.297 813.409C936.624 813.706 937.115 813.855 937.769 813.855ZM963.315 815.639H952.265V813.654L956.469 809.428C957.71 808.156 958.532 807.257 958.933 806.729C959.342 806.194 959.639 805.692 959.825 805.224C960.011 804.755 960.104 804.254 960.104 803.718C960.104 802.982 959.881 802.403 959.435 801.979C958.996 801.555 958.387 801.343 957.606 801.343C956.982 801.343 956.376 801.459 955.788 801.689C955.209 801.919 954.536 802.336 953.77 802.938L952.354 801.21C953.261 800.444 954.142 799.901 954.997 799.581C955.852 799.262 956.762 799.102 957.729 799.102C959.245 799.102 960.461 799.5 961.375 800.295C962.289 801.083 962.747 802.146 962.747 803.484C962.747 804.22 962.613 804.919 962.345 805.581C962.085 806.242 961.68 806.926 961.13 807.632C960.587 808.331 959.68 809.279 958.409 810.476L955.577 813.219V813.33H963.315V815.639ZM967.419 804.22C967.419 805.328 967.527 806.153 967.742 806.696C967.958 807.238 968.311 807.51 968.801 807.51C969.783 807.51 970.273 806.413 970.273 804.22C970.273 802.027 969.783 800.931 968.801 800.931C968.311 800.931 967.958 801.202 967.742 801.745C967.527 802.287 967.419 803.113 967.419 804.22ZM972.437 804.198C972.437 805.908 972.128 807.194 971.511 808.056C970.902 808.911 969.998 809.338 968.801 809.338C967.671 809.338 966.794 808.896 966.17 808.012C965.553 807.119 965.244 805.848 965.244 804.198C965.244 800.801 966.43 799.102 968.801 799.102C969.969 799.102 970.864 799.544 971.489 800.429C972.121 801.306 972.437 802.562 972.437 804.198ZM978.034 810.732C978.034 811.84 978.142 812.669 978.358 813.219C978.581 813.769 978.938 814.044 979.428 814.044C980.402 814.044 980.889 812.94 980.889 810.732C980.889 808.554 980.402 807.465 979.428 807.465C978.938 807.465 978.581 807.733 978.358 808.268C978.142 808.803 978.034 809.625 978.034 810.732ZM983.052 810.732C983.052 812.442 982.744 813.724 982.127 814.579C981.51 815.434 980.61 815.862 979.428 815.862C978.298 815.862 977.421 815.423 976.797 814.546C976.172 813.661 975.86 812.39 975.86 810.732C975.86 807.335 977.049 805.636 979.428 805.636C980.573 805.636 981.461 806.075 982.093 806.952C982.733 807.829 983.052 809.089 983.052 810.732ZM979.74 799.336L970.697 815.639H968.534L977.577 799.336H979.74Z" fill="#008B8A"/>
<path d="M934.32 735H932.699V726.512H928.344V735H926.73V725.127H934.32V735ZM940.019 735.135C938.858 735.135 937.948 734.797 937.291 734.122C936.638 733.442 936.312 732.508 936.312 731.32C936.312 730.1 936.616 729.141 937.224 728.443C937.831 727.745 938.666 727.396 939.729 727.396C940.715 727.396 941.494 727.696 942.065 728.294C942.637 728.893 942.923 729.717 942.923 730.766V731.624H937.946C937.969 732.348 938.165 732.907 938.534 733.298C938.903 733.685 939.423 733.879 940.094 733.879C940.535 733.879 940.944 733.839 941.323 733.757C941.705 733.672 942.115 733.532 942.552 733.339V734.629C942.164 734.813 941.773 734.944 941.377 735.02C940.98 735.097 940.528 735.135 940.019 735.135ZM939.729 728.598C939.225 728.598 938.82 728.758 938.513 729.078C938.212 729.397 938.032 729.863 937.973 730.476H941.363C941.354 729.859 941.206 729.393 940.917 729.078C940.629 728.758 940.233 728.598 939.729 728.598ZM948.514 735.135C947.569 735.135 946.835 734.795 946.313 734.115H946.218C946.281 734.746 946.313 735.128 946.313 735.263V738.322H944.726V727.531H946.009C946.045 727.671 946.119 728.004 946.232 728.531H946.313C946.808 727.774 947.551 727.396 948.541 727.396C949.473 727.396 950.198 727.734 950.716 728.409C951.238 729.085 951.499 730.032 951.499 731.252C951.499 732.472 951.233 733.424 950.702 734.109C950.176 734.793 949.446 735.135 948.514 735.135ZM948.129 728.693C947.499 728.693 947.038 728.877 946.745 729.247C946.457 729.616 946.313 730.205 946.313 731.016V731.252C946.313 732.162 946.457 732.821 946.745 733.231C947.033 733.636 947.504 733.839 948.156 733.839C948.706 733.839 949.129 733.613 949.426 733.163C949.723 732.713 949.872 732.072 949.872 731.239C949.872 730.401 949.723 729.769 949.426 729.341C949.133 728.909 948.701 728.693 948.129 728.693ZM959.825 729.442C959.825 730.325 959.31 730.858 958.279 731.043V731.097C958.855 731.164 959.296 731.347 959.602 731.644C959.909 731.941 960.062 732.326 960.062 732.799C960.062 733.505 959.792 734.05 959.251 734.433C958.716 734.811 957.935 735 956.908 735H953.343V727.531H956.895C958.848 727.531 959.825 728.168 959.825 729.442ZM958.434 732.704C958.434 732.344 958.295 732.09 958.016 731.941C957.736 731.788 957.318 731.711 956.76 731.711H954.93V733.825H956.8C957.89 733.825 958.434 733.451 958.434 732.704ZM958.238 729.577C958.238 729.28 958.121 729.067 957.887 728.936C957.658 728.801 957.313 728.733 956.854 728.733H954.93V730.53H956.618C957.149 730.53 957.552 730.462 957.826 730.327C958.101 730.187 958.238 729.938 958.238 729.577ZM963.29 730.516H964.802C965.847 730.516 966.619 730.696 967.118 731.056C967.618 731.417 967.868 731.957 967.868 732.677C967.868 733.447 967.607 734.028 967.085 734.419C966.567 734.806 965.806 735 964.802 735H961.703V727.531H963.29V730.516ZM966.295 732.718C966.295 732.344 966.155 732.083 965.876 731.934C965.601 731.786 965.205 731.711 964.687 731.711H963.29V733.825H964.485C965.124 733.825 965.585 733.735 965.869 733.555C966.153 733.375 966.295 733.096 966.295 732.718ZM970.637 735H969.043V727.531H970.637V735ZM974.432 727.531V731.36C974.432 731.806 974.396 732.461 974.324 733.325L978.071 727.531H980.01V735H978.483V731.239C978.483 731.032 978.495 730.696 978.517 730.233C978.544 729.769 978.567 729.431 978.585 729.22L974.85 735H972.912V727.531H974.432ZM976.41 726.62C975.456 726.62 974.756 726.449 974.31 726.107C973.869 725.76 973.624 725.184 973.574 724.378H975.012C975.039 724.702 975.1 724.954 975.195 725.134C975.294 725.314 975.433 725.445 975.613 725.526C975.798 725.602 976.077 725.641 976.451 725.641C976.892 725.641 977.227 725.544 977.457 725.35C977.687 725.152 977.826 724.828 977.876 724.378H979.341C979.273 725.152 979.001 725.719 978.524 726.08C978.047 726.44 977.342 726.62 976.41 726.62ZM990.693 727.531V728.774H987.451V735H985.864V727.531H990.693ZM998.755 731.252C998.755 732.472 998.443 733.424 997.817 734.109C997.191 734.793 996.32 735.135 995.203 735.135C994.506 735.135 993.889 734.977 993.353 734.662C992.817 734.347 992.405 733.895 992.117 733.305C991.829 732.715 991.685 732.031 991.685 731.252C991.685 730.041 991.996 729.096 992.617 728.416C993.238 727.736 994.114 727.396 995.244 727.396C996.324 727.396 997.18 727.745 997.81 728.443C998.44 729.136 998.755 730.073 998.755 731.252ZM993.319 731.252C993.319 732.976 993.956 733.839 995.23 733.839C996.491 733.839 997.121 732.976 997.121 731.252C997.121 729.546 996.486 728.693 995.217 728.693C994.551 728.693 994.067 728.913 993.765 729.355C993.468 729.796 993.319 730.428 993.319 731.252ZM1007.75 737.64H1006.27V735H1001.15V737.64H999.687V733.771H1000.3C1000.83 733.01 1001.25 732.092 1001.56 731.016C1001.87 729.935 1002.06 728.774 1002.12 727.531H1006.66V733.771H1007.75V737.64ZM1005.1 733.771V728.747H1003.49C1003.4 729.674 1003.22 730.588 1002.95 731.489C1002.68 732.389 1002.35 733.15 1001.96 733.771H1005.1Z" fill="#9A9A9A"/>
<path d="M931.376 593.127H934.306C935.666 593.127 936.647 593.325 937.251 593.722C937.858 594.118 938.162 594.744 938.162 595.599C938.162 596.175 938.014 596.655 937.717 597.037C937.419 597.42 936.992 597.661 936.434 597.76V597.827C937.127 597.958 937.636 598.217 937.96 598.604C938.288 598.987 938.453 599.507 938.453 600.164C938.453 601.051 938.142 601.746 937.521 602.25C936.904 602.75 936.044 603 934.941 603H931.376V593.127ZM932.99 597.206H934.543C935.218 597.206 935.711 597.1 936.022 596.889C936.332 596.673 936.488 596.308 936.488 595.795C936.488 595.331 936.319 594.996 935.981 594.789C935.648 594.581 935.117 594.478 934.387 594.478H932.99V597.206ZM932.99 598.516V601.643H934.705C935.38 601.643 935.889 601.514 936.231 601.258C936.578 600.997 936.751 600.587 936.751 600.029C936.751 599.516 936.575 599.135 936.224 598.888C935.873 598.64 935.34 598.516 934.624 598.516H932.99ZM945.948 595.531V596.774H943.517V603H941.924V596.774H939.493V595.531H945.948ZM954.011 599.252C954.011 600.472 953.698 601.424 953.073 602.109C952.447 602.793 951.576 603.135 950.459 603.135C949.761 603.135 949.145 602.977 948.609 602.662C948.073 602.347 947.661 601.895 947.373 601.305C947.085 600.715 946.941 600.031 946.941 599.252C946.941 598.041 947.252 597.096 947.873 596.416C948.494 595.736 949.37 595.396 950.5 595.396C951.58 595.396 952.436 595.745 953.066 596.443C953.696 597.136 954.011 598.073 954.011 599.252ZM948.575 599.252C948.575 600.976 949.212 601.839 950.486 601.839C951.747 601.839 952.377 600.976 952.377 599.252C952.377 597.546 951.742 596.693 950.473 596.693C949.806 596.693 949.322 596.913 949.021 597.355C948.724 597.796 948.575 598.428 948.575 599.252ZM959.63 603.135C958.684 603.135 957.95 602.795 957.428 602.115H957.334C957.397 602.746 957.428 603.128 957.428 603.263V606.322H955.841V595.531H957.124C957.16 595.671 957.235 596.004 957.347 596.531H957.428C957.923 595.774 958.666 595.396 959.657 595.396C960.588 595.396 961.313 595.734 961.831 596.409C962.353 597.085 962.614 598.032 962.614 599.252C962.614 600.472 962.349 601.424 961.817 602.109C961.291 602.793 960.561 603.135 959.63 603.135ZM959.245 596.693C958.614 596.693 958.153 596.877 957.86 597.247C957.572 597.616 957.428 598.205 957.428 599.016V599.252C957.428 600.162 957.572 600.821 957.86 601.231C958.148 601.636 958.619 601.839 959.272 601.839C959.821 601.839 960.244 601.613 960.541 601.163C960.838 600.713 960.987 600.072 960.987 599.239C960.987 598.401 960.838 597.769 960.541 597.341C960.249 596.909 959.816 596.693 959.245 596.693ZM971.082 599.252C971.082 600.472 970.769 601.424 970.144 602.109C969.518 602.793 968.647 603.135 967.53 603.135C966.833 603.135 966.216 602.977 965.68 602.662C965.144 602.347 964.732 601.895 964.444 601.305C964.156 600.715 964.012 600.031 964.012 599.252C964.012 598.041 964.323 597.096 964.944 596.416C965.565 595.736 966.441 595.396 967.571 595.396C968.651 595.396 969.507 595.745 970.137 596.443C970.767 597.136 971.082 598.073 971.082 599.252ZM965.646 599.252C965.646 600.976 966.283 601.839 967.557 601.839C968.818 601.839 969.448 600.976 969.448 599.252C969.448 597.546 968.813 596.693 967.544 596.693C966.878 596.693 966.394 596.913 966.092 597.355C965.795 597.796 965.646 598.428 965.646 599.252ZM974.432 595.531V599.36C974.432 599.806 974.396 600.461 974.324 601.325L978.071 595.531H980.01V603H978.483V599.239C978.483 599.032 978.495 598.696 978.517 598.233C978.544 597.769 978.567 597.431 978.585 597.22L974.85 603H972.912V595.531H974.432ZM976.41 594.62C975.456 594.62 974.756 594.449 974.31 594.107C973.869 593.76 973.624 593.184 973.574 592.378H975.012C975.039 592.702 975.1 592.954 975.195 593.134C975.294 593.314 975.433 593.445 975.613 593.526C975.798 593.602 976.077 593.641 976.451 593.641C976.892 593.641 977.227 593.544 977.457 593.35C977.687 593.152 977.826 592.828 977.876 592.378H979.341C979.273 593.152 979.001 593.719 978.524 594.08C978.047 594.44 977.342 594.62 976.41 594.62ZM990.693 595.531V596.774H987.451V603H985.864V595.531H990.693ZM998.755 599.252C998.755 600.472 998.443 601.424 997.817 602.109C997.191 602.793 996.32 603.135 995.203 603.135C994.506 603.135 993.889 602.977 993.353 602.662C992.817 602.347 992.405 601.895 992.117 601.305C991.829 600.715 991.685 600.031 991.685 599.252C991.685 598.041 991.996 597.096 992.617 596.416C993.238 595.736 994.114 595.396 995.244 595.396C996.324 595.396 997.18 595.745 997.81 596.443C998.44 597.136 998.755 598.073 998.755 599.252ZM993.319 599.252C993.319 600.976 993.956 601.839 995.23 601.839C996.491 601.839 997.121 600.976 997.121 599.252C997.121 597.546 996.486 596.693 995.217 596.693C994.551 596.693 994.067 596.913 993.765 597.355C993.468 597.796 993.319 598.428 993.319 599.252ZM1007.75 605.64H1006.27V603H1001.15V605.64H999.687V601.771H1000.3C1000.83 601.01 1001.25 600.092 1001.56 599.016C1001.87 597.935 1002.06 596.774 1002.12 595.531H1006.66V601.771H1007.75V605.64ZM1005.1 601.771V596.747H1003.49C1003.4 597.674 1003.22 598.588 1002.95 599.489C1002.68 600.389 1002.35 601.15 1001.96 601.771H1005.1Z" fill="#9A9A9A"/>
<path d="M935.664 459H934.05V450.512H931.146V449.127H938.567V450.512H935.664V459ZM943.706 459.135C942.761 459.135 942.027 458.795 941.505 458.115H941.41C941.473 458.746 941.505 459.128 941.505 459.263V462.322H939.918V451.531H941.201C941.237 451.671 941.311 452.004 941.424 452.531H941.505C942 451.774 942.743 451.396 943.733 451.396C944.665 451.396 945.39 451.734 945.908 452.409C946.43 453.085 946.691 454.032 946.691 455.252C946.691 456.472 946.425 457.424 945.894 458.109C945.368 458.793 944.638 459.135 943.706 459.135ZM943.321 452.693C942.691 452.693 942.23 452.877 941.937 453.247C941.649 453.616 941.505 454.205 941.505 455.016V455.252C941.505 456.162 941.649 456.821 941.937 457.231C942.225 457.636 942.696 457.839 943.348 457.839C943.898 457.839 944.321 457.613 944.618 457.163C944.915 456.713 945.064 456.072 945.064 455.239C945.064 454.401 944.915 453.769 944.618 453.341C944.325 452.909 943.893 452.693 943.321 452.693ZM951.796 459.135C950.635 459.135 949.725 458.797 949.068 458.122C948.415 457.442 948.089 456.508 948.089 455.32C948.089 454.1 948.393 453.141 949.001 452.443C949.608 451.745 950.443 451.396 951.506 451.396C952.492 451.396 953.271 451.696 953.842 452.294C954.414 452.893 954.7 453.717 954.7 454.766V455.624H949.723C949.746 456.348 949.941 456.907 950.311 457.298C950.68 457.685 951.2 457.879 951.871 457.879C952.312 457.879 952.721 457.839 953.1 457.757C953.482 457.672 953.892 457.532 954.329 457.339V458.629C953.941 458.813 953.55 458.944 953.154 459.02C952.757 459.097 952.305 459.135 951.796 459.135ZM951.506 452.598C951.002 452.598 950.596 452.758 950.29 453.078C949.989 453.397 949.809 453.863 949.75 454.476H953.14C953.131 453.859 952.982 453.393 952.694 453.078C952.406 452.758 952.01 452.598 951.506 452.598ZM962.115 451.531V452.774H959.684V459H958.09V452.774H955.659V451.531H962.115ZM965.072 451.531V455.36C965.072 455.806 965.036 456.461 964.964 457.325L968.712 451.531H970.65V459H969.124V455.239C969.124 455.032 969.135 454.696 969.158 454.233C969.185 453.769 969.207 453.431 969.225 453.22L965.491 459H963.553V451.531H965.072ZM974.432 451.531V455.36C974.432 455.806 974.396 456.461 974.324 457.325L978.071 451.531H980.01V459H978.483V455.239C978.483 455.032 978.495 454.696 978.517 454.233C978.544 453.769 978.567 453.431 978.585 453.22L974.85 459H972.912V451.531H974.432ZM976.41 450.62C975.456 450.62 974.756 450.449 974.31 450.107C973.869 449.76 973.624 449.184 973.574 448.378H975.012C975.039 448.702 975.1 448.954 975.195 449.134C975.294 449.314 975.433 449.445 975.613 449.526C975.798 449.602 976.077 449.641 976.451 449.641C976.892 449.641 977.227 449.544 977.457 449.35C977.687 449.152 977.826 448.828 977.876 448.378H979.341C979.273 449.152 979.001 449.719 978.524 450.08C978.047 450.44 977.342 450.62 976.41 450.62ZM990.693 451.531V452.774H987.451V459H985.864V451.531H990.693ZM998.755 455.252C998.755 456.472 998.443 457.424 997.817 458.109C997.191 458.793 996.32 459.135 995.203 459.135C994.506 459.135 993.889 458.977 993.353 458.662C992.817 458.347 992.405 457.895 992.117 457.305C991.829 456.715 991.685 456.031 991.685 455.252C991.685 454.041 991.996 453.096 992.617 452.416C993.238 451.736 994.114 451.396 995.244 451.396C996.324 451.396 997.18 451.745 997.81 452.443C998.44 453.136 998.755 454.073 998.755 455.252ZM993.319 455.252C993.319 456.976 993.956 457.839 995.23 457.839C996.491 457.839 997.121 456.976 997.121 455.252C997.121 453.546 996.486 452.693 995.217 452.693C994.551 452.693 994.067 452.913 993.765 453.355C993.468 453.796 993.319 454.428 993.319 455.252ZM1007.75 461.64H1006.27V459H1001.15V461.64H999.687V457.771H1000.3C1000.83 457.01 1001.25 456.092 1001.56 455.016C1001.87 453.935 1002.06 452.774 1002.12 451.531H1006.66V457.771H1007.75V461.64ZM1005.1 457.771V452.747H1003.49C1003.4 453.674 1003.22 454.588 1002.95 455.489C1002.68 456.389 1002.35 457.15 1001.96 457.771H1005.1Z" fill="#9A9A9A"/>
<line x1="1017" y1="749.5" x2="1030" y2="749.5" stroke="#F5F5F5"/>
<line x1="1017" y1="761.5" x2="1030" y2="761.5" stroke="#F5F5F5"/>
<line x1="1017" y1="773.5" x2="1030" y2="773.5" stroke="#F5F5F5"/>
<line x1="1017" y1="785.5" x2="1030" y2="785.5" stroke="#F5F5F5"/>
<line x1="1017" y1="797.5" x2="1030" y2="797.5" stroke="#F5F5F5"/>
<line x1="1017" y1="809.5" x2="1030" y2="809.5" stroke="#F5F5F5"/>
<line x1="1017" y1="821.5" x2="1030" y2="821.5" stroke="#F5F5F5"/>
<line x1="1017" y1="833.5" x2="1030" y2="833.5" stroke="#F5F5F5"/>
<line x1="1017" y1="845.5" x2="1030" y2="845.5" stroke="#F5F5F5"/>
<line x1="1024" y1="857.5" x2="1037" y2="857.5" stroke="#F5F5F5"/>
<path d="M1099.83 131.497C1099.83 175.41 1064.85 211 1021.69 211C978.537 211 943.547 175.41 943.547 131.497C943.547 87.594 978.537 52 1021.69 52C1064.85 52 1099.83 87.594 1099.83 131.497Z" fill="#008B8A"/>
<path d="M1097.68 150.074L1052.48 104.084C1052.15 103.445 1051.42 103.002 1050.58 103.002H1047.16C1045.99 103.002 1045.06 103.829 1045.06 104.856V110.566L1024.41 89.5686C1023.68 88.7303 1022.72 88.2705 1021.7 88.2705C1020.67 88.2705 1019.69 88.7303 1018.98 89.5578L974.805 140.174V145.997L984.859 156.231C984.859 156.161 984.886 156.069 984.943 155.977V170.34C984.943 171.859 985.624 173.2 986.644 173.995L1023.02 210.99C1059.3 210.379 1089.56 184.607 1097.68 150.074Z" fill="#188382"/>
<path d="M1024.41 89.5686C1023.68 88.7303 1022.72 88.2705 1021.7 88.2705C1020.67 88.2705 1019.69 88.7303 1018.98 89.5578L974.805 140.174V145.997C974.805 145.921 974.822 145.814 974.906 145.705L984.943 134.211V170.34C984.943 172.763 986.671 174.735 988.78 174.735H1054.59C1056.71 174.735 1058.44 172.763 1058.44 170.34V134.211L1068.47 145.705C1068.55 145.792 1068.57 145.895 1068.57 145.997V140.174L1024.41 89.5686Z" fill="#ECF0F0"/>
<path d="M1050.58 103.002H1047.16C1045.99 103.002 1045.06 103.829 1045.06 104.856V113.1L1052.67 121.848V104.856C1052.67 103.829 1051.74 103.002 1050.58 103.002Z" fill="#2C3D50"/>
<path d="M1032.67 170.114V143.365C1032.67 141.569 1031.4 140.132 1029.83 140.132H1013.54C1011.99 140.132 1010.72 141.569 1010.72 143.365V170.114C1010.72 171.509 1011.49 172.693 1012.58 173.147H1030.8C1031.89 172.693 1032.67 171.509 1032.67 170.114Z" fill="#2C3D50"/>
<g opacity="0.33">
<path d="M459.842 136.018C459.842 155.362 444.434 171.039 425.423 171.039C406.413 171.039 391 155.362 391 136.018C391 116.679 406.413 101 425.423 101C444.434 101 459.842 116.679 459.842 136.018Z" fill="#008B8A"/>
<path d="M458.895 144.202L438.984 123.943C438.839 123.662 438.518 123.467 438.148 123.467H436.639C436.126 123.467 435.717 123.831 435.717 124.283V126.799L426.618 117.549C426.298 117.18 425.874 116.978 425.427 116.978C424.971 116.978 424.542 117.18 424.227 117.545L404.769 139.841V142.406L409.198 146.914C409.198 146.883 409.209 146.843 409.235 146.802V153.129C409.235 153.798 409.535 154.389 409.984 154.739L426.007 171.035C441.989 170.766 455.319 159.414 458.895 144.202Z" fill="#188382"/>
<path d="M426.618 117.549C426.298 117.18 425.874 116.978 425.427 116.978C424.971 116.978 424.542 117.18 424.227 117.545L404.769 139.841V142.406C404.769 142.372 404.776 142.325 404.813 142.277L409.235 137.214V153.129C409.235 154.196 409.996 155.065 410.925 155.065H439.913C440.849 155.065 441.61 154.196 441.61 153.129V137.214L446.029 142.277C446.062 142.316 446.074 142.361 446.074 142.406V139.841L426.618 117.549Z" fill="#ECF0F0"/>
<path d="M438.149 123.466H436.64C436.127 123.466 435.717 123.83 435.717 124.283V127.914L439.069 131.767V124.283C439.069 123.83 438.657 123.466 438.149 123.466Z" fill="#2C3D50"/>
<path d="M430.257 153.029V141.247C430.257 140.455 429.698 139.822 429.01 139.822H421.831C421.147 139.822 420.588 140.455 420.588 141.247V153.029C420.588 153.644 420.93 154.165 421.41 154.365H429.436C429.913 154.165 430.257 153.644 430.257 153.029Z" fill="#2C3D50"/>
<g style="mix-blend-mode:color">
<path d="M459.842 136.018C459.842 155.362 444.434 171.039 425.423 171.039C406.413 171.039 391 155.362 391 136.018C391 116.679 406.413 101 425.423 101C444.434 101 459.842 116.679 459.842 136.018Z" fill="black"/>
</g>
</g>
<path d="M1648 135.498C1648 154.605 1632.78 170.091 1614 170.091C1595.22 170.091 1580 154.605 1580 135.498C1580 116.396 1595.22 100.908 1614 100.908C1632.78 100.908 1648 116.396 1648 135.498Z" fill="#008B8A"/>
<path d="M1647.07 143.582L1627.4 123.571C1627.25 123.293 1626.94 123.1 1626.57 123.1H1625.08C1624.57 123.1 1624.17 123.46 1624.17 123.907V126.391L1615.18 117.255C1614.87 116.891 1614.45 116.69 1614.01 116.69C1613.56 116.69 1613.13 116.89 1612.82 117.251L1593.6 139.274V141.808L1597.98 146.261C1597.98 146.23 1597.99 146.19 1598.01 146.15V152.4C1598.01 153.061 1598.31 153.644 1598.75 153.99L1614.58 170.087C1630.37 169.821 1643.53 158.608 1647.07 143.582Z" fill="#188382"/>
<path d="M1615.18 117.255C1614.87 116.891 1614.45 116.69 1614.01 116.69C1613.56 116.69 1613.13 116.89 1612.82 117.251L1593.6 139.274V141.808C1593.6 141.775 1593.61 141.728 1593.64 141.681L1598.01 136.68V152.4C1598.01 153.454 1598.76 154.312 1599.68 154.312H1628.32C1629.24 154.312 1629.99 153.454 1629.99 152.4V136.68L1634.36 141.681C1634.39 141.719 1634.4 141.763 1634.4 141.808V139.274L1615.18 117.255Z" fill="#ECF0F0"/>
<path d="M1626.57 123.1H1625.08C1624.57 123.1 1624.17 123.46 1624.17 123.906V127.494L1627.48 131.3V123.906C1627.48 123.46 1627.07 123.1 1626.57 123.1Z" fill="#2C3D50"/>
<path d="M1618.78 152.301V140.663C1618.78 139.881 1618.22 139.256 1617.54 139.256H1610.45C1609.78 139.256 1609.23 139.881 1609.23 140.663V152.301C1609.23 152.908 1609.56 153.424 1610.04 153.621H1617.96C1618.44 153.424 1618.78 152.908 1618.78 152.301Z" fill="#2C3D50"/>
<path d="M1648 135.498C1648 154.605 1632.78 170.091 1614 170.091C1595.22 170.091 1580 154.605 1580 135.498C1580 116.396 1595.22 100.908 1614 100.908C1632.78 100.908 1648 116.396 1648 135.498Z" fill="#008B8A"/>
<rect x="1599.51" y="132.839" width="28.3826" height="3.54783" rx="1.77391" fill="white"/>
<rect x="1615.48" y="120.422" width="28.3826" height="3.54782" rx="1.77391" transform="rotate(90 1615.48 120.422)" fill="white"/>
<defs>
<filter id="filter0_d" x="4.19048" y="337.636" width="95.2381" height="96.6974" filterUnits="userSpaceOnUse" color-interpolation-filters="sRGB">
<feFlood flood-opacity="0" result="BackgroundImageFix"/>
<feColorMatrix in="SourceAlpha" type="matrix" values="0 0 0 0 0 0 0 0 0 0 0 0 0 0 0 0 0 0 127 0"/>
<feOffset dy="9.52381"/>
<feGaussianBlur stdDeviation="11.9048"/>
<feColorMatrix type="matrix" values="0 0 0 0 0 0 0 0 0 0 0 0 0 0 0 0 0 0 0.16 0"/>
<feBlend mode="normal" in2="BackgroundImageFix" result="effect1_dropShadow"/>
<feBlend mode="normal" in="SourceGraphic" in2="effect1_dropShadow" result="shape"/>
</filter>
<filter id="filter1_d" x="3.83329" y="661.976" width="96.3334" height="96.971" filterUnits="userSpaceOnUse" color-interpolation-filters="sRGB">
<feFlood flood-opacity="0" result="BackgroundImageFix"/>
<feColorMatrix in="SourceAlpha" type="matrix" values="0 0 0 0 0 0 0 0 0 0 0 0 0 0 0 0 0 0 127 0"/>
<feOffset dy="9.14286"/>
<feGaussianBlur stdDeviation="11.4286"/>
<feColorMatrix type="matrix" values="0 0 0 0 0 0 0 0 0 0 0 0 0 0 0 0 0 0 0.16 0"/>
<feBlend mode="normal" in2="BackgroundImageFix" result="effect1_dropShadow"/>
<feBlend mode="normal" in="SourceGraphic" in2="effect1_dropShadow" result="shape"/>
</filter>
<filter id="filter2_d" x="8" y="505" width="88" height="84" filterUnits="userSpaceOnUse" color-interpolation-filters="sRGB">
<feFlood flood-opacity="0" result="BackgroundImageFix"/>
<feColorMatrix in="SourceAlpha" type="matrix" values="0 0 0 0 0 0 0 0 0 0 0 0 0 0 0 0 0 0 127 0"/>
<feOffset dy="8"/>
<feGaussianBlur stdDeviation="10"/>
<feColorMatrix type="matrix" values="0 0 0 0 0 0 0 0 0 0 0 0 0 0 0 0 0 0 0.16 0"/>
<feBlend mode="normal" in2="BackgroundImageFix" result="effect1_dropShadow"/>
<feBlend mode="normal" in="SourceGraphic" in2="effect1_dropShadow" result="shape"/>
</filter>
<filter id="filter3_d" x="987.483" y="67.8559" width="72.0339" height="836.034" filterUnits="userSpaceOnUse" color-interpolation-filters="sRGB">
<feFlood flood-opacity="0" result="BackgroundImageFix"/>
<feColorMatrix in="SourceAlpha" type="matrix" values="0 0 0 0 0 0 0 0 0 0 0 0 0 0 0 0 0 0 127 0"/>
<feOffset dy="4.37288"/>
<feGaussianBlur stdDeviation="14.7585"/>
<feColorMatrix type="matrix" values="0 0 0 0 0 0 0 0 0 0 0 0 0 0 0 0 0 0 0.08 0"/>
<feBlend mode="normal" in2="BackgroundImageFix" result="effect1_dropShadow"/>
<feBlend mode="normal" in="SourceGraphic" in2="effect1_dropShadow" result="shape"/>
</filter>
</defs>
</svg>
