<svg width="444" height="226" viewBox="0 0 444 226" fill="none" xmlns="http://www.w3.org/2000/svg">
<path d="M133.818 58.1781C49.0668 77.1979 0 143.208 0 143.208V0H220.801V97.3367C220.801 97.3367 147.2 55.175 133.818 58.1781Z" fill="white"/>
<path d="M133.818 67.1288C45.7213 96.2177 0 177.891 0 177.891V226H220.801V116.357C220.801 116.357 149.657 61.8992 133.818 67.1288Z" fill="white"/>
<path d="M260.946 0H274.328V21.5371L289.94 0H304.437L283.249 24.6138L304.437 53.7029H291.055L274.328 28.0361V53.7029H260.946V27.846L243.104 53.7029H229.722L250.91 24.6138L229.722 0H244.219L260.946 21.7181V0Z" fill="white"/>
<path d="M318.934 0H307.783V53.7029H318.934L341.237 20.0161V53.7029H352.389V0L341.237 0.000136574L318.934 32.3212V0Z" fill="white"/>
<path fill-rule="evenodd" clip-rule="evenodd" d="M278.789 116.356H312.243V125.307H289.94V134.257H303.322C303.322 134.257 317.819 136.78 317.819 152.158C317.819 167.536 303.322 170.059 303.322 170.059H278.789V116.356ZM303.322 161.109C303.322 161.109 308.898 160.642 308.898 152.158C308.898 143.208 303.322 143.208 303.322 143.208H289.94V161.109H303.322Z" fill="white"/>
<path d="M354.619 116.356V125.307H332.316V136.495H354.619V145.445H332.316V161.109H356.849V170.059H321.164V116.356H354.619Z" fill="white"/>
<path d="M256.138 161.109C251.35 161.109 246.474 159.542 244.424 155.2C243.087 152.368 241.96 148.431 241.96 143.208C241.96 138.419 242.99 134.646 244.249 131.824C246.355 127.104 251.581 125.307 256.735 125.307H272.098V116.356H250.461C249.332 116.356 248.202 116.429 247.144 116.824C243.345 118.246 234.182 123.697 234.182 143.208C234.182 158.389 241.214 165.434 245.512 168.322C247.546 169.689 250.015 170.059 252.463 170.059H272.098V161.109H256.138Z" fill="white"/>
<path fill-rule="evenodd" clip-rule="evenodd" d="M374.692 149.921V170.059H363.54V116.356L385.227 115.421C387.986 115.302 390.748 116.058 392.658 118.051C395.502 121.019 399.225 126.224 399.225 133.138C399.225 140.252 395.369 145.056 392.507 147.642C390.659 149.312 388.17 149.921 385.679 149.921H374.692ZM391.419 134.257C391.419 126.426 386.858 124.188 381.119 124.188H374.692V143.208H382.233C387.431 143.208 391.419 139.851 391.419 134.257Z" fill="white"/>
<path d="M403.686 53.703H392.534V11.1882H380.268V30.2685C380.268 38.5004 375.763 48.3051 368.538 52.2078L365.771 53.703H361.31H356.849V44.7526C365.03 44.1212 369.116 36.1588 369.116 27.9274V0.000136574H403.686V53.703Z" fill="white"/>
<path d="M289.94 62.6534V109.643H294.401V62.6534H310.013V58.1781H274.328V62.6534H289.94Z" fill="white"/>
<path fill-rule="evenodd" clip-rule="evenodd" d="M321.164 89.5048V109.643H316.704V58.1781H335.336C336.288 58.1781 337.231 58.3562 338.118 58.7034C350.645 63.6078 351.615 79.9174 341.929 86.9916C338.844 89.2451 334.839 89.5048 331.022 89.5048H321.164ZM321.164 85.0296H335.179C336.231 85.0296 337.272 84.8004 338.227 84.3579C345.912 80.7992 346.894 71.1705 341.863 65.7916C339.124 62.864 334.742 62.6534 330.74 62.6534H321.164V85.0296Z" fill="white"/>
<path d="M243.104 101.812C234.745 94.4472 233.985 75.7681 241.962 66.7476C245.131 63.1647 250.274 62.6534 255.048 62.6534H268.752V58.1781H249.847C248.518 58.1781 247.206 58.4727 246.005 59.041C228.547 67.2969 227.591 95.799 241.822 107.047C245.402 109.877 250.159 110.369 254.717 110.369H268.752V105.168H253.62C249.853 105.168 246.178 103.995 243.104 101.812Z" fill="white"/>
<path d="M410.377 58.1781H405.916V109.643H410.377V108.722L439.371 65.8828V109.643H443.831V58.1781H439.371V58.2989L439.193 58.1781L410.377 100.755V58.1781Z" fill="white"/>
<path d="M365.771 174.534H370.231V199.148V226H365.771V174.534Z" fill="white"/>
<path d="M370.231 199.148L396.995 174.534H401.456L375.807 199.148L401.456 226H396.995L370.231 199.148Z" fill="white"/>
<path d="M359.08 174.534V226H354.619V201.386H325.625V226H321.164V174.534H325.625V196.911H354.619V174.534H359.08Z" fill="white"/>
<path fill-rule="evenodd" clip-rule="evenodd" d="M303.766 210.336L309.487 224.551H314.473L293.286 174.504H288.825L267.637 224.551H272.624L278.345 210.336H303.766ZM301.965 205.861L291.055 178.755L280.146 205.861H301.965Z" fill="white"/>
<path fill-rule="evenodd" clip-rule="evenodd" d="M231.952 174.534H260.946V179.01H236.413V194.673H252.025C252.025 194.673 266.522 194.673 266.522 210.336C266.522 226 252.025 226 252.025 226H231.952V174.534ZM262.061 210.336C262.061 222.06 252.025 221.524 252.025 221.524H236.413V199.148H252.025C252.025 199.148 262.061 198.612 262.061 210.336Z" fill="white"/>
<path d="M420.06 58.1781H429.276L420.06 69.9706L420.06 58.1781Z" fill="white"/>
<path fill-rule="evenodd" clip-rule="evenodd" d="M399.225 82.792C399.225 97.6217 389.24 109.643 376.922 109.643C364.604 109.643 354.619 97.6217 354.619 82.792C354.619 67.9623 364.604 55.9405 376.922 55.9405C389.24 55.9405 399.225 67.9623 399.225 82.792ZM395.17 82.7921C395.17 95.3402 387 105.512 376.922 105.512C366.844 105.512 358.674 95.3402 358.674 82.7921C358.674 70.2439 366.844 60.0716 376.922 60.0716C387 60.0716 395.17 70.2439 395.17 82.7921Z" fill="white"/>
</svg>
